<?xml version="1.0" encoding="utf-8"?>
<!-- Generator: Adobe Illustrator 16.0.0, SVG Export Plug-In . SVG Version: 6.00 Build 0)  -->
<!DOCTYPE svg PUBLIC "-//W3C//DTD SVG 1.1//EN" "http://www.w3.org/Graphics/SVG/1.1/DTD/svg11.dtd">
<svg version="1.1" xmlns="http://www.w3.org/2000/svg" xmlns:xlink="http://www.w3.org/1999/xlink" x="0px" y="0px" width="750px"
	 height="276px" viewBox="0 0 750 276" enable-background="new 0 0 750 276" xml:space="preserve">
<g id="Слой_3">
</g>
<g id="Слой_1">
	<g>
		<rect x="36" y="213" fill="#CCCCCC" width="678" height="2"/>
	</g>
	<g>
		<rect x="36" y="237" fill="#CCCCCC" width="678" height="2"/>
	</g>
	<g>
		<rect x="36" y="187" fill="#CCCCCC" width="678" height="2"/>
	</g>
	<g>
		<rect x="36" y="162" fill="#CCCCCC" width="678" height="2"/>
	</g>
	<g>
		<rect x="36" y="136" fill="#CCCCCC" width="678" height="2"/>
	</g>
	<g>
		<rect x="36" y="111" fill="#CCCCCC" width="678" height="2"/>
	</g>
	<g>
		<rect x="36" y="86" fill="#CCCCCC" width="678" height="2"/>
	</g>
	<g>
		<rect x="36" y="61" fill="#CCCCCC" width="678" height="2"/>
	</g>
	<g>
		<rect x="36" y="36" fill="#CCCCCC" width="678" height="2"/>
	</g>
	<g>
		<path fill="#808080" d="M14.351,36.436c0.645,0,1.1-0.16,1.366-0.479s0.399-0.768,0.399-1.344c0-0.537-0.146-0.97-0.436-1.3
			c-0.291-0.329-0.722-0.494-1.293-0.494c-0.557,0-1.017,0.172-1.381,0.517c-0.364,0.344-0.545,0.775-0.545,1.292h-1.377
			l-0.022-0.044c-0.024-0.801,0.278-1.484,0.908-2.051s1.436-0.85,2.417-0.85c0.991,0,1.768,0.25,2.329,0.75
			c0.562,0.501,0.842,1.237,0.842,2.208c0,0.498-0.131,0.952-0.392,1.362s-0.626,0.73-1.095,0.959
			c0.537,0.215,0.946,0.541,1.227,0.978c0.281,0.438,0.421,0.966,0.421,1.586c0,0.977-0.309,1.742-0.926,2.296
			c-0.618,0.555-1.42,0.832-2.406,0.832c-0.908,0-1.708-0.267-2.398-0.802c-0.691-0.534-1.024-1.241-1-2.12l0.015-0.044h1.377
			c0,0.518,0.187,0.954,0.561,1.308c0.373,0.354,0.855,0.531,1.446,0.531c0.586,0,1.047-0.182,1.384-0.545s0.505-0.839,0.505-1.425
			c0-0.669-0.155-1.169-0.465-1.501c-0.311-0.332-0.797-0.498-1.461-0.498h-1.187v-1.121H14.351z"/>
		<path fill="#808080" d="M26.172,38.735c0,1.206-0.307,2.161-0.919,2.864s-1.437,1.055-2.472,1.055
			c-1.03,0-1.854-0.352-2.472-1.055c-0.618-0.703-0.927-1.658-0.927-2.864v-3.135c0-1.196,0.306-2.148,0.919-2.856
			s1.435-1.062,2.465-1.062c1.035,0,1.861,0.354,2.479,1.062c0.617,0.708,0.926,1.66,0.926,2.856V38.735z M24.729,35.3
			c0-0.767-0.171-1.372-0.513-1.816s-0.825-0.667-1.45-0.667c-0.62,0-1.099,0.222-1.436,0.667s-0.505,1.05-0.505,1.816v3.728
			c0,0.767,0.172,1.375,0.516,1.824c0.345,0.449,0.824,0.674,1.439,0.674c0.625,0,1.106-0.223,1.443-0.67
			c0.337-0.446,0.505-1.056,0.505-1.827V35.3z"/>
		<path fill="#808080" d="M17.83,67.5h-6.621v-0.989l3.347-3.992c0.596-0.723,1-1.297,1.212-1.725
			c0.212-0.427,0.318-0.858,0.318-1.293c0-0.493-0.144-0.897-0.432-1.212c-0.288-0.315-0.686-0.473-1.194-0.473
			c-0.63,0-1.109,0.193-1.439,0.579c-0.329,0.386-0.494,0.867-0.494,1.443h-1.392l-0.015-0.044
			c-0.024-0.869,0.266-1.605,0.872-2.208s1.428-0.905,2.468-0.905c0.952,0,1.702,0.264,2.249,0.791s0.82,1.208,0.82,2.043
			c0,0.562-0.155,1.111-0.465,1.648s-0.782,1.211-1.417,2.021l-2.688,3.149l0.015,0.037h4.856V67.5z"/>
		<path fill="#808080" d="M19.837,62.761l0.615-5.925h5.339v1.282h-4.124l-0.344,3.069c0.229-0.171,0.483-0.312,0.762-0.421
			c0.278-0.11,0.596-0.167,0.952-0.172c0.986-0.01,1.759,0.299,2.318,0.926c0.559,0.628,0.839,1.488,0.839,2.582
			c0,1.069-0.287,1.929-0.86,2.578c-0.574,0.649-1.41,0.974-2.509,0.974c-0.903,0-1.655-0.247-2.256-0.74s-0.889-1.218-0.864-2.175
			l0.015-0.044h1.304c0,0.581,0.167,1.032,0.502,1.351c0.334,0.32,0.768,0.48,1.3,0.48c0.61,0,1.084-0.215,1.421-0.645
			s0.505-1.018,0.505-1.765c0-0.679-0.17-1.228-0.509-1.648s-0.812-0.63-1.417-0.63c-0.566,0-0.977,0.085-1.23,0.256
			s-0.442,0.435-0.564,0.791L19.837,62.761z"/>
		<path fill="#808080" d="M17.83,92.5h-6.621v-0.989l3.347-3.992c0.596-0.723,1-1.297,1.212-1.725
			c0.212-0.427,0.318-0.858,0.318-1.293c0-0.493-0.144-0.897-0.432-1.212c-0.288-0.315-0.686-0.473-1.194-0.473
			c-0.63,0-1.109,0.193-1.439,0.579c-0.329,0.386-0.494,0.867-0.494,1.443h-1.392l-0.015-0.044
			c-0.024-0.869,0.266-1.605,0.872-2.208s1.428-0.905,2.468-0.905c0.952,0,1.702,0.264,2.249,0.791s0.82,1.208,0.82,2.043
			c0,0.562-0.155,1.111-0.465,1.648s-0.782,1.211-1.417,2.021l-2.688,3.149l0.015,0.037h4.856V92.5z"/>
		<path fill="#808080" d="M26.172,88.735c0,1.206-0.307,2.161-0.919,2.864s-1.437,1.055-2.472,1.055
			c-1.03,0-1.854-0.352-2.472-1.055c-0.618-0.703-0.927-1.658-0.927-2.864v-3.135c0-1.196,0.306-2.148,0.919-2.856
			s1.435-1.062,2.465-1.062c1.035,0,1.861,0.354,2.479,1.062c0.617,0.708,0.926,1.66,0.926,2.856V88.735z M24.729,85.3
			c0-0.767-0.171-1.372-0.513-1.816s-0.825-0.667-1.45-0.667c-0.62,0-1.099,0.222-1.436,0.667s-0.505,1.05-0.505,1.816v3.728
			c0,0.767,0.172,1.375,0.516,1.824c0.345,0.449,0.824,0.674,1.439,0.674c0.625,0,1.106-0.223,1.443-0.67
			c0.337-0.446,0.505-1.056,0.505-1.827V85.3z"/>
		<path fill="#808080" d="M15.311,117.5h-1.45v-9.331l-2.322,0.022v-1.113l3.772-0.396V117.5z"/>
		<path fill="#808080" d="M19.837,112.761l0.615-5.925h5.339v1.282h-4.124l-0.344,3.069c0.229-0.171,0.483-0.312,0.762-0.421
			c0.278-0.11,0.596-0.167,0.952-0.172c0.986-0.01,1.759,0.299,2.318,0.926c0.559,0.628,0.839,1.488,0.839,2.582
			c0,1.069-0.287,1.929-0.86,2.578c-0.574,0.649-1.41,0.974-2.509,0.974c-0.903,0-1.655-0.247-2.256-0.74s-0.889-1.218-0.864-2.175
			l0.015-0.044h1.304c0,0.581,0.167,1.032,0.502,1.351c0.334,0.32,0.768,0.48,1.3,0.48c0.61,0,1.084-0.215,1.421-0.645
			s0.505-1.018,0.505-1.765c0-0.679-0.17-1.228-0.509-1.648s-0.812-0.63-1.417-0.63c-0.566,0-0.977,0.085-1.23,0.256
			s-0.442,0.435-0.564,0.791L19.837,112.761z"/>
		<path fill="#808080" d="M15.311,142.5h-1.45v-9.331l-2.322,0.022v-1.113l3.772-0.396V142.5z"/>
		<path fill="#808080" d="M26.172,138.735c0,1.206-0.307,2.161-0.919,2.864s-1.437,1.055-2.472,1.055
			c-1.03,0-1.854-0.352-2.472-1.055c-0.618-0.703-0.927-1.658-0.927-2.864v-3.135c0-1.196,0.306-2.148,0.919-2.856
			s1.435-1.062,2.465-1.062c1.035,0,1.861,0.354,2.479,1.062c0.617,0.708,0.926,1.66,0.926,2.856V138.735z M24.729,135.301
			c0-0.767-0.171-1.372-0.513-1.816s-0.825-0.667-1.45-0.667c-0.62,0-1.099,0.223-1.436,0.667s-0.505,1.05-0.505,1.816v3.728
			c0,0.767,0.172,1.375,0.516,1.823c0.345,0.45,0.824,0.674,1.439,0.674c0.625,0,1.106-0.223,1.443-0.67
			c0.337-0.446,0.505-1.056,0.505-1.827V135.301z"/>
		<path fill="#808080" d="M19.837,162.762l0.615-5.926h5.339v1.281h-4.124l-0.344,3.069c0.229-0.171,0.483-0.312,0.762-0.421
			c0.278-0.11,0.596-0.167,0.952-0.172c0.986-0.01,1.759,0.299,2.318,0.926c0.559,0.628,0.839,1.488,0.839,2.582
			c0,1.069-0.287,1.929-0.86,2.578c-0.574,0.649-1.41,0.975-2.509,0.975c-0.903,0-1.655-0.247-2.256-0.74s-0.889-1.218-0.864-2.176
			l0.015-0.043h1.304c0,0.581,0.167,1.031,0.502,1.351c0.334,0.32,0.768,0.479,1.3,0.479c0.61,0,1.084-0.214,1.421-0.645
			c0.337-0.429,0.505-1.018,0.505-1.765c0-0.679-0.17-1.228-0.509-1.647s-0.812-0.631-1.417-0.631c-0.566,0-0.977,0.086-1.23,0.257
			s-0.442,0.435-0.564,0.791L19.837,162.762z"/>
		<path fill="#808080" d="M26.172,188.735c0,1.206-0.307,2.161-0.919,2.864s-1.437,1.055-2.472,1.055
			c-1.03,0-1.854-0.352-2.472-1.055c-0.618-0.703-0.927-1.658-0.927-2.864v-3.135c0-1.196,0.306-2.148,0.919-2.856
			s1.435-1.063,2.465-1.063c1.035,0,1.861,0.354,2.479,1.063c0.617,0.708,0.926,1.66,0.926,2.856V188.735z M24.729,185.301
			c0-0.767-0.171-1.372-0.513-1.816s-0.825-0.667-1.45-0.667c-0.62,0-1.099,0.223-1.436,0.667s-0.505,1.05-0.505,1.816v3.728
			c0,0.767,0.172,1.375,0.516,1.823c0.345,0.45,0.824,0.674,1.439,0.674c0.625,0,1.106-0.223,1.443-0.67
			c0.337-0.446,0.505-1.056,0.505-1.827V185.301z"/>
		<path fill="#808080" d="M17.339,213.56h-4.321v-1.128h4.321V213.56z"/>
		<path fill="#808080" d="M19.837,212.762l0.615-5.926h5.339v1.281h-4.124l-0.344,3.069c0.229-0.171,0.483-0.312,0.762-0.421
			c0.278-0.11,0.596-0.167,0.952-0.172c0.986-0.01,1.759,0.299,2.318,0.926c0.559,0.628,0.839,1.488,0.839,2.582
			c0,1.069-0.287,1.929-0.86,2.578c-0.574,0.649-1.41,0.975-2.509,0.975c-0.903,0-1.655-0.247-2.256-0.74s-0.889-1.218-0.864-2.176
			l0.015-0.043h1.304c0,0.581,0.167,1.031,0.502,1.351c0.334,0.32,0.768,0.479,1.3,0.479c0.61,0,1.084-0.214,1.421-0.645
			c0.337-0.429,0.505-1.018,0.505-1.765c0-0.679-0.17-1.228-0.509-1.647s-0.812-0.631-1.417-0.631c-0.566,0-0.977,0.086-1.23,0.257
			s-0.442,0.435-0.564,0.791L19.837,212.762z"/>
		<path fill="#808080" d="M8.895,238.56H4.573v-1.128h4.321V238.56z"/>
		<path fill="#808080" d="M15.311,242.5h-1.45v-9.331l-2.322,0.022v-1.113l3.772-0.396V242.5z"/>
		<path fill="#808080" d="M26.172,238.735c0,1.206-0.307,2.161-0.919,2.864s-1.437,1.055-2.472,1.055
			c-1.03,0-1.854-0.352-2.472-1.055c-0.618-0.703-0.927-1.658-0.927-2.864v-3.135c0-1.196,0.306-2.148,0.919-2.856
			s1.435-1.063,2.465-1.063c1.035,0,1.861,0.354,2.479,1.063c0.617,0.708,0.926,1.66,0.926,2.856V238.735z M24.729,235.301
			c0-0.767-0.171-1.372-0.513-1.816s-0.825-0.667-1.45-0.667c-0.62,0-1.099,0.223-1.436,0.667s-0.505,1.05-0.505,1.816v3.728
			c0,0.767,0.172,1.375,0.516,1.823c0.345,0.45,0.824,0.674,1.439,0.674c0.625,0,1.106-0.223,1.443-0.67
			c0.337-0.446,0.505-1.056,0.505-1.827V235.301z"/>
	</g>
	<g>
		<path fill="#808080" d="M728.695,30.682c0.42,0,0.834,0.042,1.244,0.125s0.75,0.188,1.019,0.315l-0.308,1.106
			c-0.278-0.122-0.571-0.221-0.879-0.297c-0.308-0.075-0.666-0.113-1.076-0.113c-0.67,0-1.213,0.286-1.63,0.857
			c-0.418,0.571-0.626,1.294-0.626,2.168v0.828c0.297-0.298,0.65-0.532,1.058-0.703s0.847-0.256,1.315-0.256
			c0.918,0,1.644,0.308,2.179,0.923c0.534,0.615,0.802,1.423,0.802,2.424c0,1.094-0.299,1.967-0.897,2.618
			c-0.599,0.652-1.405,0.978-2.421,0.978c-0.986,0-1.811-0.375-2.475-1.125c-0.664-0.749-0.996-1.773-0.996-3.072v-2.454
			c0-1.25,0.354-2.283,1.065-3.098C726.779,31.09,727.654,30.682,728.695,30.682z M728.351,35.787c-0.454,0-0.844,0.097-1.168,0.289
			c-0.325,0.193-0.573,0.453-0.743,0.78v0.74c0,0.903,0.195,1.618,0.589,2.142c0.394,0.525,0.876,0.788,1.446,0.788
			c0.602,0,1.063-0.228,1.389-0.685c0.324-0.456,0.486-1.051,0.486-1.783c0-0.693-0.174-1.245-0.523-1.655
			S728.985,35.787,728.351,35.787z"/>
		<path fill="#808080" d="M740.063,37.735c0,1.206-0.307,2.161-0.92,2.864s-1.437,1.055-2.472,1.055
			c-1.03,0-1.854-0.352-2.472-1.055c-0.618-0.703-0.927-1.658-0.927-2.864v-3.135c0-1.196,0.306-2.148,0.919-2.856
			s1.435-1.062,2.465-1.062c1.035,0,1.861,0.354,2.479,1.062c0.617,0.708,0.927,1.66,0.927,2.856V37.735z M738.619,34.3
			c0-0.767-0.171-1.372-0.513-1.816s-0.825-0.667-1.45-0.667c-0.62,0-1.099,0.222-1.436,0.667s-0.506,1.05-0.506,1.816v3.728
			c0,0.767,0.173,1.375,0.517,1.824c0.345,0.449,0.824,0.674,1.439,0.674c0.625,0,1.106-0.223,1.442-0.67
			c0.338-0.446,0.506-1.056,0.506-1.827V34.3z"/>
		<path fill="#808080" d="M725.281,61.761l0.615-5.925h5.34v1.282h-4.123l-0.345,3.069c0.229-0.171,0.483-0.312,0.762-0.421
			c0.278-0.11,0.596-0.167,0.952-0.172c0.986-0.01,1.759,0.299,2.318,0.926c0.559,0.628,0.838,1.488,0.838,2.582
			c0,1.069-0.287,1.929-0.86,2.578s-1.409,0.974-2.509,0.974c-0.902,0-1.654-0.247-2.256-0.74c-0.6-0.493-0.889-1.218-0.863-2.175
			l0.014-0.044h1.305c0,0.581,0.166,1.032,0.501,1.351c0.335,0.32,0.769,0.48,1.3,0.48c0.611,0,1.084-0.215,1.422-0.645
			c0.336-0.43,0.505-1.018,0.505-1.765c0-0.679-0.17-1.228-0.509-1.648c-0.34-0.42-0.813-0.63-1.418-0.63
			c-0.566,0-0.977,0.085-1.23,0.256s-0.441,0.435-0.563,0.791L725.281,61.761z"/>
		<path fill="#808080" d="M733.727,61.761l0.615-5.925h5.34v1.282h-4.124l-0.345,3.069c0.23-0.171,0.484-0.312,0.762-0.421
			c0.279-0.11,0.596-0.167,0.953-0.172c0.986-0.01,1.758,0.299,2.317,0.926c0.56,0.628,0.839,1.488,0.839,2.582
			c0,1.069-0.287,1.929-0.86,2.578c-0.574,0.649-1.41,0.974-2.509,0.974c-0.903,0-1.655-0.247-2.256-0.74s-0.889-1.218-0.864-2.175
			l0.015-0.044h1.304c0,0.581,0.167,1.032,0.502,1.351c0.334,0.32,0.768,0.48,1.3,0.48c0.61,0,1.084-0.215,1.421-0.645
			s0.505-1.018,0.505-1.765c0-0.679-0.17-1.228-0.509-1.648s-0.812-0.63-1.417-0.63c-0.566,0-0.977,0.085-1.23,0.256
			s-0.441,0.435-0.564,0.791L733.727,61.761z"/>
		<path fill="#808080" d="M725.281,86.761l0.615-5.925h5.34v1.282h-4.123l-0.345,3.069c0.229-0.171,0.483-0.312,0.762-0.421
			c0.278-0.11,0.596-0.167,0.952-0.172c0.986-0.01,1.759,0.299,2.318,0.926c0.559,0.628,0.838,1.488,0.838,2.582
			c0,1.069-0.287,1.929-0.86,2.578s-1.409,0.974-2.509,0.974c-0.902,0-1.654-0.247-2.256-0.74c-0.6-0.493-0.889-1.218-0.863-2.175
			l0.014-0.044h1.305c0,0.581,0.166,1.032,0.501,1.351c0.335,0.32,0.769,0.48,1.3,0.48c0.611,0,1.084-0.215,1.422-0.645
			c0.336-0.43,0.505-1.018,0.505-1.765c0-0.679-0.17-1.228-0.509-1.648c-0.34-0.42-0.813-0.63-1.418-0.63
			c-0.566,0-0.977,0.085-1.23,0.256s-0.441,0.435-0.563,0.791L725.281,86.761z"/>
		<path fill="#808080" d="M740.063,87.735c0,1.206-0.307,2.161-0.92,2.864s-1.437,1.055-2.472,1.055
			c-1.03,0-1.854-0.352-2.472-1.055c-0.618-0.703-0.927-1.658-0.927-2.864v-3.135c0-1.196,0.306-2.148,0.919-2.856
			s1.435-1.062,2.465-1.062c1.035,0,1.861,0.354,2.479,1.062c0.617,0.708,0.927,1.66,0.927,2.856V87.735z M738.619,84.3
			c0-0.767-0.171-1.372-0.513-1.816s-0.825-0.667-1.45-0.667c-0.62,0-1.099,0.222-1.436,0.667s-0.506,1.05-0.506,1.816v3.728
			c0,0.767,0.173,1.375,0.517,1.824c0.345,0.449,0.824,0.674,1.439,0.674c0.625,0,1.106-0.223,1.442-0.67
			c0.338-0.446,0.506-1.056,0.506-1.827V84.3z"/>
		<path fill="#808080" d="M730.541,112.911h1.472v1.128h-1.472v2.461h-1.436v-2.461h-4.578v-0.813l4.49-7.39h1.523V112.911z
			 M726.072,112.911h3.033v-5.002l-0.045-0.007l-0.139,0.366L726.072,112.911z"/>
		<path fill="#808080" d="M733.727,111.761l0.615-5.925h5.34v1.282h-4.124l-0.345,3.069c0.23-0.171,0.484-0.312,0.762-0.421
			c0.279-0.11,0.596-0.167,0.953-0.172c0.986-0.01,1.758,0.299,2.317,0.926c0.56,0.628,0.839,1.488,0.839,2.582
			c0,1.069-0.287,1.929-0.86,2.578c-0.574,0.649-1.41,0.974-2.509,0.974c-0.903,0-1.655-0.247-2.256-0.74s-0.889-1.218-0.864-2.175
			l0.015-0.044h1.304c0,0.581,0.167,1.032,0.502,1.351c0.334,0.32,0.768,0.48,1.3,0.48c0.61,0,1.084-0.215,1.421-0.645
			s0.505-1.018,0.505-1.765c0-0.679-0.17-1.228-0.509-1.648s-0.812-0.63-1.417-0.63c-0.566,0-0.977,0.085-1.23,0.256
			s-0.441,0.435-0.564,0.791L733.727,111.761z"/>
		<path fill="#808080" d="M730.541,137.911h1.472v1.128h-1.472v2.461h-1.436v-2.461h-4.578v-0.813l4.49-7.391h1.523V137.911z
			 M726.072,137.911h3.033v-5.003l-0.045-0.007l-0.139,0.366L726.072,137.911z"/>
		<path fill="#808080" d="M740.063,137.735c0,1.206-0.307,2.161-0.92,2.864s-1.437,1.055-2.472,1.055
			c-1.03,0-1.854-0.352-2.472-1.055c-0.618-0.703-0.927-1.658-0.927-2.864v-3.135c0-1.196,0.306-2.148,0.919-2.856
			s1.435-1.062,2.465-1.062c1.035,0,1.861,0.354,2.479,1.062c0.617,0.708,0.927,1.66,0.927,2.856V137.735z M738.619,134.301
			c0-0.767-0.171-1.372-0.513-1.816s-0.825-0.667-1.45-0.667c-0.62,0-1.099,0.223-1.436,0.667s-0.506,1.05-0.506,1.816v3.728
			c0,0.767,0.173,1.375,0.517,1.823c0.345,0.45,0.824,0.674,1.439,0.674c0.625,0,1.106-0.223,1.442-0.67
			c0.338-0.446,0.506-1.056,0.506-1.827V134.301z"/>
		<path fill="#808080" d="M728.24,160.436c0.645,0,1.1-0.16,1.366-0.479c0.267-0.32,0.399-0.768,0.399-1.345
			c0-0.536-0.146-0.97-0.436-1.3c-0.291-0.329-0.722-0.494-1.293-0.494c-0.557,0-1.018,0.172-1.381,0.517
			c-0.363,0.344-0.545,0.775-0.545,1.293h-1.377l-0.022-0.045c-0.024-0.8,0.278-1.483,0.908-2.051c0.63-0.565,1.436-0.85,2.417-0.85
			c0.991,0,1.768,0.251,2.329,0.751c0.562,0.501,0.843,1.237,0.843,2.208c0,0.498-0.131,0.953-0.393,1.363s-0.626,0.729-1.095,0.959
			c0.537,0.215,0.946,0.541,1.227,0.978c0.28,0.438,0.421,0.966,0.421,1.586c0,0.977-0.309,1.742-0.926,2.296
			c-0.618,0.555-1.42,0.832-2.406,0.832c-0.908,0-1.708-0.268-2.398-0.803c-0.691-0.534-1.024-1.241-1-2.12l0.015-0.044h1.377
			c0,0.518,0.187,0.953,0.561,1.308c0.373,0.354,0.855,0.53,1.446,0.53c0.586,0,1.047-0.182,1.385-0.545
			c0.336-0.364,0.505-0.839,0.505-1.425c0-0.669-0.155-1.169-0.465-1.501c-0.311-0.332-0.798-0.498-1.462-0.498h-1.186v-1.121
			H728.24z"/>
		<path fill="#808080" d="M733.727,161.762l0.615-5.926h5.34v1.281h-4.124l-0.345,3.069c0.23-0.171,0.484-0.312,0.762-0.421
			c0.279-0.11,0.596-0.167,0.953-0.172c0.986-0.01,1.758,0.299,2.317,0.926c0.56,0.628,0.839,1.488,0.839,2.582
			c0,1.069-0.287,1.929-0.86,2.578c-0.574,0.649-1.41,0.975-2.509,0.975c-0.903,0-1.655-0.247-2.256-0.74s-0.889-1.218-0.864-2.176
			l0.015-0.043h1.304c0,0.581,0.167,1.031,0.502,1.351c0.334,0.32,0.768,0.479,1.3,0.479c0.61,0,1.084-0.214,1.421-0.645
			c0.337-0.429,0.505-1.018,0.505-1.765c0-0.679-0.17-1.228-0.509-1.647s-0.812-0.631-1.417-0.631c-0.566,0-0.977,0.086-1.23,0.257
			s-0.441,0.435-0.564,0.791L733.727,161.762z"/>
		<path fill="#808080" d="M728.24,185.436c0.645,0,1.1-0.16,1.366-0.479c0.267-0.32,0.399-0.768,0.399-1.345
			c0-0.536-0.146-0.97-0.436-1.3c-0.291-0.329-0.722-0.494-1.293-0.494c-0.557,0-1.018,0.172-1.381,0.517
			c-0.363,0.344-0.545,0.775-0.545,1.293h-1.377l-0.022-0.045c-0.024-0.8,0.278-1.483,0.908-2.051c0.63-0.565,1.436-0.85,2.417-0.85
			c0.991,0,1.768,0.251,2.329,0.751c0.562,0.501,0.843,1.237,0.843,2.208c0,0.498-0.131,0.953-0.393,1.363s-0.626,0.729-1.095,0.959
			c0.537,0.215,0.946,0.541,1.227,0.978c0.28,0.438,0.421,0.966,0.421,1.586c0,0.977-0.309,1.742-0.926,2.296
			c-0.618,0.555-1.42,0.832-2.406,0.832c-0.908,0-1.708-0.268-2.398-0.803c-0.691-0.534-1.024-1.241-1-2.12l0.015-0.044h1.377
			c0,0.518,0.187,0.953,0.561,1.308c0.373,0.354,0.855,0.53,1.446,0.53c0.586,0,1.047-0.182,1.385-0.545
			c0.336-0.364,0.505-0.839,0.505-1.425c0-0.669-0.155-1.169-0.465-1.501c-0.311-0.332-0.798-0.498-1.462-0.498h-1.186v-1.121
			H728.24z"/>
		<path fill="#808080" d="M740.063,187.735c0,1.206-0.307,2.161-0.92,2.864s-1.437,1.055-2.472,1.055
			c-1.03,0-1.854-0.352-2.472-1.055c-0.618-0.703-0.927-1.658-0.927-2.864v-3.135c0-1.196,0.306-2.148,0.919-2.856
			s1.435-1.063,2.465-1.063c1.035,0,1.861,0.354,2.479,1.063c0.617,0.708,0.927,1.66,0.927,2.856V187.735z M738.619,184.301
			c0-0.767-0.171-1.372-0.513-1.816s-0.825-0.667-1.45-0.667c-0.62,0-1.099,0.223-1.436,0.667s-0.506,1.05-0.506,1.816v3.728
			c0,0.767,0.173,1.375,0.517,1.823c0.345,0.45,0.824,0.674,1.439,0.674c0.625,0,1.106-0.223,1.442-0.67
			c0.338-0.446,0.506-1.056,0.506-1.827V184.301z"/>
		<path fill="#808080" d="M731.72,216.5h-6.621v-0.988l3.347-3.992c0.596-0.723,1-1.298,1.213-1.725
			c0.212-0.428,0.318-0.858,0.318-1.293c0-0.493-0.145-0.897-0.432-1.212c-0.289-0.315-0.687-0.473-1.194-0.473
			c-0.63,0-1.109,0.193-1.439,0.579c-0.329,0.386-0.494,0.866-0.494,1.442h-1.392l-0.015-0.044
			c-0.024-0.869,0.267-1.605,0.872-2.208c0.605-0.604,1.428-0.905,2.468-0.905c0.952,0,1.702,0.264,2.249,0.791
			s0.82,1.209,0.82,2.044c0,0.562-0.156,1.111-0.466,1.647c-0.31,0.538-0.782,1.212-1.417,2.021l-2.688,3.15l0.014,0.036h4.856
			V216.5z"/>
		<path fill="#808080" d="M733.727,211.762l0.615-5.926h5.34v1.281h-4.124l-0.345,3.069c0.23-0.171,0.484-0.312,0.762-0.421
			c0.279-0.11,0.596-0.167,0.953-0.172c0.986-0.01,1.758,0.299,2.317,0.926c0.56,0.628,0.839,1.488,0.839,2.582
			c0,1.069-0.287,1.929-0.86,2.578c-0.574,0.649-1.41,0.975-2.509,0.975c-0.903,0-1.655-0.247-2.256-0.74s-0.889-1.218-0.864-2.176
			l0.015-0.043h1.304c0,0.581,0.167,1.031,0.502,1.351c0.334,0.32,0.768,0.479,1.3,0.479c0.61,0,1.084-0.214,1.421-0.645
			c0.337-0.429,0.505-1.018,0.505-1.765c0-0.679-0.17-1.228-0.509-1.647s-0.812-0.631-1.417-0.631c-0.566,0-0.977,0.086-1.23,0.257
			s-0.441,0.435-0.564,0.791L733.727,211.762z"/>
		<path fill="#808080" d="M731.72,241.5h-6.621v-0.988l3.347-3.992c0.596-0.723,1-1.298,1.213-1.725
			c0.212-0.428,0.318-0.858,0.318-1.293c0-0.493-0.145-0.897-0.432-1.212c-0.289-0.315-0.687-0.473-1.194-0.473
			c-0.63,0-1.109,0.193-1.439,0.579c-0.329,0.386-0.494,0.866-0.494,1.442h-1.392l-0.015-0.044
			c-0.024-0.869,0.267-1.605,0.872-2.208c0.605-0.604,1.428-0.905,2.468-0.905c0.952,0,1.702,0.264,2.249,0.791
			s0.82,1.209,0.82,2.044c0,0.562-0.156,1.111-0.466,1.647c-0.31,0.538-0.782,1.212-1.417,2.021l-2.688,3.15l0.014,0.036h4.856
			V241.5z"/>
		<path fill="#808080" d="M740.063,237.735c0,1.206-0.307,2.161-0.92,2.864s-1.437,1.055-2.472,1.055
			c-1.03,0-1.854-0.352-2.472-1.055c-0.618-0.703-0.927-1.658-0.927-2.864v-3.135c0-1.196,0.306-2.148,0.919-2.856
			s1.435-1.063,2.465-1.063c1.035,0,1.861,0.354,2.479,1.063c0.617,0.708,0.927,1.66,0.927,2.856V237.735z M738.619,234.301
			c0-0.767-0.171-1.372-0.513-1.816s-0.825-0.667-1.45-0.667c-0.62,0-1.099,0.223-1.436,0.667s-0.506,1.05-0.506,1.816v3.728
			c0,0.767,0.173,1.375,0.517,1.823c0.345,0.45,0.824,0.674,1.439,0.674c0.625,0,1.106-0.223,1.442-0.67
			c0.338-0.446,0.506-1.056,0.506-1.827V234.301z"/>
	</g>
	<g>
		<path fill="#6CC1E3" d="M14.508,11.021c0,2.32-0.861,3.601-2.373,3.601c-1.333,0-2.236-1.249-2.257-3.506
			c0-2.289,0.987-3.549,2.373-3.549C13.688,7.566,14.508,8.848,14.508,11.021z M10.802,11.125c0,1.774,0.546,2.782,1.386,2.782
			c0.945,0,1.396-1.102,1.396-2.845c0-1.68-0.431-2.782-1.386-2.782C11.39,8.28,10.802,9.268,10.802,11.125z"/>
		<path fill="#6CC1E3" d="M24.984,20.158c-0.504,0.252-1.639,0.522-3.115,0.522c-4.195,0-6.355-2.611-6.355-6.068
			c0-4.141,2.953-6.446,6.626-6.446c1.422,0,2.502,0.288,2.989,0.54l-0.558,2.179c-0.558-0.234-1.333-0.45-2.305-0.45
			c-2.179,0-3.871,1.314-3.871,4.015c0,2.431,1.44,3.961,3.889,3.961c0.828,0,1.747-0.18,2.287-0.396L24.984,20.158z"/>
	</g>
</g>
<g id="Слой_4">
	<g>
		<rect x="34" y="194.25" fill="#BFE3F3" width="51" height="38.75"/>
		<rect x="85" y="194.25" fill="#B3D8EA" width="9" height="38.75"/>
	</g>
	<g>
		<g>
			<rect x="94" y="187" fill="#BBF1E4" width="51" height="46"/>
		</g>
		<rect x="145" y="187" fill="#B0E6D8" width="9" height="46"/>
	</g>
	<g>
		<rect x="154" y="143.5" fill="#C7EFBA" width="46" height="45.875"/>
		<rect x="200" y="143.5" fill="#BDE5B0" width="9" height="45.875"/>
	</g>
	<g>
		<g>
			<rect x="208.875" y="100.5" fill="#E7F1B2" width="35.125" height="52.875"/>
		</g>
		<rect x="244" y="100.5" fill="#DBE7A7" width="9" height="52.875"/>
	</g>
	<g>
		<rect x="252.875" y="67.5" fill="#F1ECB2" width="29.125" height="64"/>
		<rect x="282" y="67.5" fill="#E4E4A4" width="9" height="64"/>
	</g>
	<g>
		<rect x="291" y="44.5" fill="#FDDF9F" width="32" height="68.75"/>
		<rect x="323" y="44.5" fill="#F3D595" width="9" height="68.75"/>
	</g>
	<g>
		<rect x="332" y="36" fill="#FABCA3" width="38" height="65.5"/>
		<rect x="370" y="36" fill="#F0B299" width="9" height="65.5"/>
	</g>
	<g>
		<g>
			<rect x="379" y="41.5" fill="#FBC6A4" width="44" height="64.75"/>
		</g>
		<rect x="423" y="41.5" fill="#EFC195" width="9" height="64.75"/>
	</g>
	<g>
		<rect x="432" y="61" fill="#FDDF9F" width="68" height="59.375"/>
		<rect x="500" y="61" fill="#F5D799" width="9" height="59.375"/>
	</g>
	<g>
		<rect x="509" y="110.5" fill="#E7F1B2" width="55" height="47"/>
		<rect x="564" y="110.5" fill="#D8E6A4" width="9" height="47"/>
	</g>
	<g>
		<rect x="573" y="157" fill="#BBF1E4" width="64" height="32.375"/>
		<rect x="637" y="157" fill="#AFE5D7" width="9" height="32.375"/>
	</g>
	<g>
		<rect x="646" y="187.33" fill="#BFE3F3" width="60" height="31.67"/>
		<rect x="706" y="187.33" fill="#B5D9E9" width="9" height="31.67"/>
	</g>
</g>
<g id="Слой_2">
	<circle fill="#6CC1E3" cx="60.625" cy="237.5" r="5.25"/>
	<circle fill="#6CC1E3" cx="122.625" cy="241.5" r="5.25"/>
	<circle fill="#6CC1E3" cx="180.625" cy="215.5" r="5.25"/>
	<circle fill="#6CC1E3" cx="231.625" cy="62.5" r="5.25"/>
	<circle fill="#6CC1E3" cx="271.625" cy="36.5" r="5.25"/>
	<circle fill="#6CC1E3" cx="310.625" cy="59.5" r="5.25"/>
	<circle fill="#6CC1E3" cx="353.625" cy="188.5" r="5.25"/>
	<circle fill="#6CC1E3" cx="403.625" cy="243.5" r="5.25"/>
	<circle fill="#6CC1E3" cx="470.625" cy="236.5" r="5.25"/>
	<circle fill="#6CC1E3" cx="539.625" cy="163.5" r="5.25"/>
	<circle fill="#6CC1E3" cx="608.625" cy="156.5" r="5.25"/>
	<circle fill="#6CC1E3" cx="679.625" cy="154.5" r="5.25"/>
	<g opacity="0.35">
		<path fill="#6CC1E3" d="M402.912,245.405l-51.787-56.078L308.626,60.419l-37.445-22.628l-38.636,26.477l-50.505,153.231
			l-59.344,25.987l-0.484-0.03l-61.197-3.888C60.915,239.565,45.694,239,37,239c-1.104,0-2-0.896-2-2s0.896-2,2-2
			c8.77,0,24.064,0.568,24.217,0.573l60.764,3.86l56.819-24.882l50.369-152.819l41.876-28.698l40.916,24.726l0.231,0.703
			l42.459,128.787l49.853,53.984l65.316-6.246l69.283-72.903l69.36-7.085l98.801-3.333c1.113-0.043,2.029,0.828,2.066,1.932
			s-0.828,2.029-1.932,2.066l-98.732,3.33l-67.685,6.918l-69.293,72.915L402.912,245.405z"/>
	</g>
	<g>
		<path fill="#555965" d="M36.941,20.5h-2.16l2.153-4.443c-0.52-0.269-0.912-0.616-1.176-1.042s-0.396-0.929-0.396-1.507
			c0-0.939,0.325-1.667,0.974-2.184s1.544-0.776,2.683-0.776h3.452V20.5h-1.996v-3.835h-1.688L36.941,20.5z M40.476,12.085H39.02
			c-0.547,0-0.961,0.132-1.244,0.396s-0.424,0.636-0.424,1.114s0.144,0.867,0.431,1.166s0.7,0.448,1.237,0.448h1.456V12.085z"/>
		<path fill="#555965" d="M50.311,20.5h-1.996v-2.871h-2.434V20.5h-1.996v-7.396h1.996v2.994h2.434v-2.994h1.996V20.5z"/>
		<path fill="#555965" d="M51.854,20.5v-7.396h3.09c0.984,0,1.751,0.173,2.3,0.52s0.824,0.861,0.824,1.545
			c0,0.346-0.115,0.654-0.345,0.923s-0.557,0.474-0.981,0.615c0.561,0.109,0.985,0.315,1.275,0.619s0.434,0.657,0.434,1.063
			c0,0.697-0.261,1.224-0.783,1.579S56.397,20.5,55.422,20.5H51.854z M53.85,16.118h1.148c0.369,0,0.642-0.059,0.817-0.178
			s0.263-0.296,0.263-0.533c0-0.269-0.093-0.466-0.28-0.591s-0.472-0.188-0.854-0.188H53.85V16.118z M53.85,17.417v1.565h1.572
			c0.351,0,0.611-0.065,0.779-0.195s0.253-0.322,0.253-0.578s-0.081-0.451-0.243-0.588s-0.425-0.205-0.79-0.205H53.85z"/>
		<path fill="#555965" d="M63.945,20.5c-0.073-0.168-0.136-0.346-0.188-0.533s-0.09-0.378-0.113-0.574
			c-0.205,0.36-0.476,0.659-0.813,0.896s-0.738,0.355-1.203,0.355c-0.775,0-1.372-0.199-1.791-0.598s-0.629-0.942-0.629-1.63
			c0-0.725,0.279-1.286,0.837-1.685s1.373-0.598,2.444-0.598h1.121v-0.588c0-0.355-0.093-0.631-0.28-0.827s-0.465-0.294-0.834-0.294
			c-0.324,0-0.573,0.079-0.749,0.236s-0.263,0.373-0.263,0.646h-1.921l-0.014-0.041c-0.032-0.625,0.24-1.163,0.817-1.617
			s1.33-0.68,2.259-0.68c0.889,0,1.607,0.223,2.157,0.67s0.824,1.087,0.824,1.921v3.056c0,0.346,0.026,0.672,0.079,0.978
			s0.136,0.608,0.25,0.909H63.945z M62.12,19.167c0.346,0,0.656-0.086,0.93-0.26s0.46-0.374,0.561-0.602V17.26h-1.121
			c-0.424,0-0.744,0.105-0.96,0.314s-0.325,0.467-0.325,0.772c0,0.25,0.081,0.45,0.243,0.598S61.833,19.167,62.12,19.167z"/>
		<path fill="#555965" d="M73.706,17.007c0,1.094-0.253,1.973-0.759,2.639s-1.212,0.998-2.119,0.998
			c-0.387,0-0.731-0.072-1.032-0.215s-0.558-0.354-0.772-0.632v3.548h-1.989v-10.24h1.798l0.116,0.875
			c0.219-0.324,0.482-0.573,0.79-0.749s0.667-0.263,1.077-0.263c0.916,0,1.627,0.358,2.133,1.073s0.759,1.657,0.759,2.823V17.007z
			 M71.709,16.863c0-0.697-0.116-1.262-0.349-1.695s-0.588-0.649-1.066-0.649c-0.301,0-0.557,0.062-0.769,0.185
			s-0.379,0.298-0.502,0.526v3.24c0.123,0.209,0.291,0.369,0.502,0.479s0.473,0.164,0.783,0.164c0.483,0,0.837-0.189,1.063-0.567
			s0.338-0.891,0.338-1.538V16.863z"/>
		<path fill="#555965" d="M76.855,15.496h1.388c0.994,0,1.775,0.229,2.345,0.687s0.854,1.059,0.854,1.801
			c0,0.752-0.285,1.359-0.854,1.822S79.236,20.5,78.243,20.5h-3.391v-7.396h2.003V15.496z M76.855,17.027v1.948h1.388
			c0.406,0,0.708-0.091,0.909-0.273s0.301-0.417,0.301-0.704c0-0.278-0.1-0.509-0.301-0.694s-0.503-0.277-0.909-0.277H76.855z"/>
		<path fill="#555965" d="M98.177,11.921c1.13,0.073,2.045,0.44,2.745,1.101s1.049,1.513,1.049,2.557
			c0,1.025-0.351,1.863-1.053,2.512s-1.616,1.008-2.741,1.077V20.5h-1.996v-1.333c-1.139-0.059-2.06-0.413-2.762-1.06
			s-1.053-1.486-1.053-2.516c0-1.053,0.351-1.912,1.053-2.577s1.623-1.03,2.762-1.094v-1.374h1.996V11.921z M94.321,15.592
			c0,0.57,0.163,1.021,0.489,1.354s0.769,0.513,1.33,0.54l0.041-0.014v-3.855l-0.041-0.014c-0.561,0.037-1.004,0.228-1.33,0.574
			S94.321,14.995,94.321,15.592z M100.009,15.578c0-0.588-0.161-1.054-0.482-1.398s-0.758-0.537-1.309-0.578l-0.041,0.014v3.855
			l0.041,0.014c0.551-0.037,0.988-0.221,1.309-0.554S100.009,16.148,100.009,15.578z"/>
		<path fill="#555965" d="M106.166,20.644c-1.103,0-1.964-0.338-2.584-1.015s-0.93-1.548-0.93-2.615V16.74
			c0-1.107,0.301-2.014,0.902-2.721s1.429-1.057,2.481-1.053c0.994,0,1.756,0.304,2.287,0.913s0.796,1.428,0.796,2.458v1.032h-4.409
			l-0.021,0.041c0.032,0.506,0.186,0.916,0.461,1.23s0.685,0.472,1.227,0.472c0.447,0,0.826-0.045,1.138-0.137
			s0.635-0.23,0.967-0.417l0.54,1.23c-0.296,0.242-0.697,0.444-1.203,0.608S106.763,20.644,106.166,20.644z M106.036,14.505
			c-0.401,0-0.71,0.138-0.926,0.414s-0.348,0.642-0.393,1.097l0.014,0.034h2.434v-0.15c0-0.433-0.089-0.773-0.267-1.022
			S106.433,14.505,106.036,14.505z"/>
		<path fill="#555965" d="M110.314,20.5v-7.396h3.09c0.984,0,1.751,0.173,2.3,0.52s0.824,0.861,0.824,1.545
			c0,0.346-0.115,0.654-0.345,0.923s-0.557,0.474-0.981,0.615c0.561,0.109,0.985,0.315,1.275,0.619s0.434,0.657,0.434,1.063
			c0,0.697-0.261,1.224-0.783,1.579s-1.271,0.533-2.246,0.533H110.314z M112.31,16.118h1.148c0.369,0,0.642-0.059,0.817-0.178
			s0.263-0.296,0.263-0.533c0-0.269-0.093-0.466-0.28-0.591s-0.472-0.188-0.854-0.188h-1.094V16.118z M112.31,17.417v1.565h1.572
			c0.351,0,0.611-0.065,0.779-0.195s0.253-0.322,0.253-0.578s-0.081-0.451-0.243-0.588s-0.425-0.205-0.79-0.205H112.31z"/>
		<path fill="#555965" d="M124.716,17.007c0,1.094-0.253,1.973-0.759,2.639s-1.212,0.998-2.119,0.998
			c-0.387,0-0.731-0.072-1.032-0.215s-0.558-0.354-0.772-0.632v3.548h-1.989v-10.24h1.798l0.116,0.875
			c0.219-0.324,0.482-0.573,0.79-0.749s0.667-0.263,1.077-0.263c0.916,0,1.627,0.358,2.133,1.073s0.759,1.657,0.759,2.823V17.007z
			 M122.72,16.863c0-0.697-0.116-1.262-0.349-1.695s-0.588-0.649-1.066-0.649c-0.301,0-0.557,0.062-0.769,0.185
			s-0.379,0.298-0.502,0.526v3.24c0.123,0.209,0.291,0.369,0.502,0.479s0.473,0.164,0.783,0.164c0.483,0,0.837-0.189,1.063-0.567
			s0.338-0.891,0.338-1.538V16.863z"/>
		<path fill="#555965" d="M130.237,20.5c-0.073-0.168-0.136-0.346-0.188-0.533s-0.09-0.378-0.113-0.574
			c-0.205,0.36-0.476,0.659-0.813,0.896s-0.738,0.355-1.203,0.355c-0.775,0-1.372-0.199-1.791-0.598s-0.629-0.942-0.629-1.63
			c0-0.725,0.279-1.286,0.837-1.685s1.373-0.598,2.444-0.598h1.121v-0.588c0-0.355-0.093-0.631-0.28-0.827s-0.465-0.294-0.834-0.294
			c-0.324,0-0.573,0.079-0.749,0.236s-0.263,0.373-0.263,0.646h-1.921l-0.014-0.041c-0.032-0.625,0.24-1.163,0.817-1.617
			s1.33-0.68,2.259-0.68c0.889,0,1.607,0.223,2.157,0.67s0.824,1.087,0.824,1.921v3.056c0,0.346,0.026,0.672,0.079,0.978
			s0.136,0.608,0.25,0.909H130.237z M128.412,19.167c0.346,0,0.656-0.086,0.93-0.26s0.46-0.374,0.561-0.602V17.26h-1.121
			c-0.424,0-0.744,0.105-0.96,0.314s-0.325,0.467-0.325,0.772c0,0.25,0.081,0.45,0.243,0.598S128.125,19.167,128.412,19.167z"/>
		<path fill="#555965" d="M139.731,13.104V20.5h-1.989v-5.852h-1.777v1.606c0,1.458-0.223,2.53-0.67,3.216s-1.21,1.029-2.29,1.029
			h-0.321l-0.021-1.572l0.212-0.007c0.456,0,0.752-0.187,0.889-0.561s0.205-1.076,0.205-2.105v-3.151H139.731z"/>
		<path fill="#555965" d="M143.229,15.496h1.388c0.994,0,1.775,0.229,2.345,0.687s0.854,1.059,0.854,1.801
			c0,0.752-0.285,1.359-0.854,1.822s-1.351,0.694-2.345,0.694h-3.391v-7.396h2.003V15.496z M143.229,17.027v1.948h1.388
			c0.406,0,0.708-0.091,0.909-0.273s0.301-0.417,0.301-0.704c0-0.278-0.1-0.509-0.301-0.694s-0.503-0.277-0.909-0.277H143.229z"/>
		<path fill="#555965" d="M164.4,17.882h0.041l2.557-7.335h2.604V20.5h-1.996v-6.795l-0.041-0.007l-2.461,6.802h-1.354l-2.461-6.815
			l-0.041,0.007V20.5h-1.996v-9.953h2.618L164.4,17.882z"/>
		<path fill="#555965" d="M175.576,20.5c-0.073-0.168-0.136-0.346-0.188-0.533s-0.09-0.378-0.113-0.574
			c-0.205,0.36-0.476,0.659-0.813,0.896s-0.738,0.355-1.203,0.355c-0.775,0-1.372-0.199-1.791-0.598s-0.629-0.942-0.629-1.63
			c0-0.725,0.279-1.286,0.837-1.685s1.373-0.598,2.444-0.598h1.121v-0.588c0-0.355-0.093-0.631-0.28-0.827s-0.465-0.294-0.834-0.294
			c-0.324,0-0.573,0.079-0.749,0.236s-0.263,0.373-0.263,0.646h-1.921l-0.014-0.041c-0.032-0.625,0.24-1.163,0.817-1.617
			s1.33-0.68,2.259-0.68c0.889,0,1.607,0.223,2.157,0.67s0.824,1.087,0.824,1.921v3.056c0,0.346,0.026,0.672,0.079,0.978
			s0.136,0.608,0.25,0.909H175.576z M173.75,19.167c0.346,0,0.656-0.086,0.93-0.26s0.46-0.374,0.561-0.602V17.26h-1.121
			c-0.424,0-0.744,0.105-0.96,0.314s-0.325,0.467-0.325,0.772c0,0.25,0.081,0.45,0.243,0.598S173.463,19.167,173.75,19.167z"/>
		<path fill="#555965" d="M185.335,17.007c0,1.094-0.253,1.973-0.759,2.639s-1.212,0.998-2.119,0.998
			c-0.387,0-0.731-0.072-1.032-0.215s-0.558-0.354-0.772-0.632v3.548h-1.989v-10.24h1.798l0.116,0.875
			c0.219-0.324,0.482-0.573,0.79-0.749s0.667-0.263,1.077-0.263c0.916,0,1.627,0.358,2.133,1.073s0.759,1.657,0.759,2.823V17.007z
			 M183.339,16.863c0-0.697-0.116-1.262-0.349-1.695s-0.588-0.649-1.066-0.649c-0.301,0-0.557,0.062-0.769,0.185
			s-0.379,0.298-0.502,0.526v3.24c0.123,0.209,0.291,0.369,0.502,0.479s0.473,0.164,0.783,0.164c0.483,0,0.837-0.189,1.063-0.567
			s0.338-0.891,0.338-1.538V16.863z"/>
		<path fill="#555965" d="M192.614,14.628h-2.365V20.5h-2.003v-5.872h-2.331v-1.524h6.699V14.628z"/>
		<path fill="#555965" d="M205.769,18.354h-3.227l-0.67,2.146h-2.085l3.356-9.953h2.044l3.343,9.953h-2.085L205.769,18.354z
			 M203.034,16.788h2.249l-1.101-3.507h-0.041L203.034,16.788z"/>
		<path fill="#555965" d="M215.344,20.5h-1.996v-5.852h-2.447V20.5h-1.996v-7.396h6.439V20.5z"/>
		<path fill="#555965" d="M223.443,17.007c0,1.094-0.253,1.973-0.759,2.639s-1.212,0.998-2.119,0.998
			c-0.387,0-0.731-0.072-1.032-0.215s-0.558-0.354-0.772-0.632v3.548h-1.989v-10.24h1.798l0.116,0.875
			c0.219-0.324,0.482-0.573,0.79-0.749s0.667-0.263,1.077-0.263c0.916,0,1.627,0.358,2.133,1.073s0.759,1.657,0.759,2.823V17.007z
			 M221.447,16.863c0-0.697-0.116-1.262-0.349-1.695s-0.588-0.649-1.066-0.649c-0.301,0-0.557,0.062-0.769,0.185
			s-0.379,0.298-0.502,0.526v3.24c0.123,0.209,0.291,0.369,0.502,0.479s0.473,0.164,0.783,0.164c0.483,0,0.837-0.189,1.063-0.567
			s0.338-0.891,0.338-1.538V16.863z"/>
		<path fill="#555965" d="M227.81,20.644c-1.103,0-1.964-0.338-2.584-1.015s-0.93-1.548-0.93-2.615V16.74
			c0-1.107,0.301-2.014,0.902-2.721s1.429-1.057,2.481-1.053c0.994,0,1.756,0.304,2.287,0.913s0.796,1.428,0.796,2.458v1.032h-4.409
			l-0.021,0.041c0.032,0.506,0.186,0.916,0.461,1.23s0.685,0.472,1.227,0.472c0.447,0,0.826-0.045,1.138-0.137
			s0.635-0.23,0.967-0.417l0.54,1.23c-0.296,0.242-0.697,0.444-1.203,0.608S228.407,20.644,227.81,20.644z M227.68,14.505
			c-0.401,0-0.71,0.138-0.926,0.414s-0.348,0.642-0.393,1.097l0.014,0.034h2.434v-0.15c0-0.433-0.089-0.773-0.267-1.022
			S228.076,14.505,227.68,14.505z"/>
		<path fill="#555965" d="M238.26,13.104V20.5h-1.989v-5.852h-1.777v1.606c0,1.458-0.223,2.53-0.67,3.216s-1.21,1.029-2.29,1.029
			h-0.321l-0.021-1.572l0.212-0.007c0.456,0,0.752-0.187,0.889-0.561s0.205-1.076,0.205-2.105v-3.151H238.26z"/>
		<path fill="#555965" d="M241.758,15.496h1.388c0.994,0,1.775,0.229,2.345,0.687s0.854,1.059,0.854,1.801
			c0,0.752-0.285,1.359-0.854,1.822s-1.351,0.694-2.345,0.694h-3.391v-7.396h2.003V15.496z M241.758,17.027v1.948h1.388
			c0.406,0,0.708-0.091,0.909-0.273s0.301-0.417,0.301-0.704c0-0.278-0.1-0.509-0.301-0.694s-0.503-0.277-0.909-0.277H241.758z"/>
		<path fill="#555965" d="M262.93,17.882h0.041l2.557-7.335h2.604V20.5h-1.996v-6.795l-0.041-0.007l-2.461,6.802h-1.354
			l-2.461-6.815l-0.041,0.007V20.5h-1.996v-9.953h2.618L262.93,17.882z"/>
		<path fill="#555965" d="M274.104,20.5c-0.073-0.168-0.136-0.346-0.188-0.533s-0.09-0.378-0.113-0.574
			c-0.205,0.36-0.476,0.659-0.813,0.896s-0.738,0.355-1.203,0.355c-0.775,0-1.372-0.199-1.791-0.598s-0.629-0.942-0.629-1.63
			c0-0.725,0.279-1.286,0.837-1.685s1.373-0.598,2.444-0.598h1.121v-0.588c0-0.355-0.093-0.631-0.28-0.827s-0.465-0.294-0.834-0.294
			c-0.324,0-0.573,0.079-0.749,0.236s-0.263,0.373-0.263,0.646h-1.921l-0.014-0.041c-0.032-0.625,0.24-1.163,0.817-1.617
			s1.33-0.68,2.259-0.68c0.889,0,1.607,0.223,2.157,0.67s0.824,1.087,0.824,1.921v3.056c0,0.346,0.026,0.672,0.079,0.978
			s0.136,0.608,0.25,0.909H274.104z M272.279,19.167c0.346,0,0.656-0.086,0.93-0.26s0.46-0.374,0.561-0.602V17.26h-1.121
			c-0.424,0-0.744,0.105-0.96,0.314s-0.325,0.467-0.325,0.772c0,0.25,0.081,0.45,0.243,0.598S271.992,19.167,272.279,19.167z"/>
		<path fill="#555965" d="M281.609,13.104h1.989V20.5h-1.989v-4.512l-0.041-0.007l-2.413,4.519h-1.996v-7.396h1.996v4.498
			l0.041,0.007L281.609,13.104z M282.696,9.884l0.014,0.041c0.023,0.579-0.179,1.052-0.605,1.418s-0.999,0.55-1.719,0.55
			c-0.725,0-1.301-0.184-1.729-0.55s-0.629-0.84-0.602-1.418l0.014-0.041h1.456c0,0.242,0.069,0.44,0.208,0.595
			s0.356,0.232,0.653,0.232c0.287,0,0.5-0.078,0.639-0.232s0.208-0.353,0.208-0.595H282.696z"/>
		<path fill="#555965" d="M301.406,10.547h1.996V20.5h-1.996v-6.651l-0.041-0.007l-4.02,6.658h-1.989v-9.953h1.989v6.645
			l0.041,0.007L301.406,10.547z"/>
		<path fill="#555965" d="M307.126,15.968h1.066c0.137-0.902,0.503-1.628,1.101-2.177s1.372-0.824,2.324-0.824
			c1.094,0,1.951,0.351,2.57,1.053s0.93,1.606,0.93,2.714v0.144c0,1.112-0.309,2.018-0.926,2.717s-1.471,1.049-2.56,1.049
			c-0.984,0-1.778-0.286-2.382-0.858s-0.963-1.332-1.077-2.28h-1.046V20.5h-1.996v-7.396h1.996V15.968z M310.127,16.877
			c0,0.674,0.119,1.216,0.355,1.624s0.62,0.612,1.148,0.612c0.515,0,0.892-0.205,1.131-0.615s0.359-0.95,0.359-1.62v-0.144
			c0-0.656-0.121-1.192-0.362-1.606s-0.622-0.622-1.142-0.622c-0.515,0-0.892,0.208-1.131,0.625s-0.359,0.951-0.359,1.603V16.877z"
			/>
		<path fill="#555965" d="M322.669,20.5h-1.996v-2.871h-2.434V20.5h-1.996v-7.396h1.996v2.994h2.434v-2.994h1.996V20.5z"/>
		<path fill="#555965" d="M326.229,15.496h1.388c0.994,0,1.775,0.229,2.345,0.687s0.854,1.059,0.854,1.801
			c0,0.752-0.285,1.359-0.854,1.822s-1.351,0.694-2.345,0.694h-3.391v-7.396h2.003V15.496z M326.229,17.027v1.948h1.388
			c0.406,0,0.708-0.091,0.909-0.273s0.301-0.417,0.301-0.704c0-0.278-0.1-0.509-0.301-0.694s-0.503-0.277-0.909-0.277H326.229z"/>
		<path fill="#555965" d="M348.234,10.547h1.996V20.5h-1.996v-6.651l-0.041-0.007l-4.02,6.658h-1.989v-9.953h1.989v6.645
			l0.041,0.007L348.234,10.547z"/>
		<path fill="#555965" d="M353.954,15.968h1.066c0.137-0.902,0.504-1.628,1.101-2.177s1.372-0.824,2.324-0.824
			c1.094,0,1.95,0.351,2.57,1.053s0.93,1.606,0.93,2.714v0.144c0,1.112-0.309,2.018-0.926,2.717c-0.618,0.7-1.472,1.049-2.561,1.049
			c-0.984,0-1.778-0.286-2.383-0.858c-0.604-0.572-0.962-1.332-1.076-2.28h-1.046V20.5h-1.996v-7.396h1.996V15.968z M356.955,16.877
			c0,0.674,0.118,1.216,0.355,1.624s0.62,0.612,1.148,0.612c0.515,0,0.893-0.205,1.131-0.615c0.24-0.41,0.359-0.95,0.359-1.62
			v-0.144c0-0.656-0.121-1.192-0.362-1.606s-0.622-0.622-1.142-0.622c-0.515,0-0.893,0.208-1.131,0.625
			c-0.24,0.417-0.359,0.951-0.359,1.603V16.877z"/>
		<path fill="#555965" d="M369.423,13.104V20.5h-1.989v-5.852h-1.777v1.606c0,1.458-0.224,2.53-0.67,3.216s-1.21,1.029-2.29,1.029
			h-0.321l-0.021-1.572l0.212-0.007c0.456,0,0.752-0.187,0.889-0.561s0.205-1.076,0.205-2.105v-3.151H369.423z"/>
		<path fill="#555965" d="M372.921,15.496h1.388c0.993,0,1.775,0.229,2.345,0.687s0.854,1.059,0.854,1.801
			c0,0.752-0.285,1.359-0.854,1.822s-1.352,0.694-2.345,0.694h-3.391v-7.396h2.003V15.496z M372.921,17.027v1.948h1.388
			c0.405,0,0.709-0.091,0.909-0.273s0.301-0.417,0.301-0.704c0-0.278-0.101-0.509-0.301-0.694s-0.504-0.277-0.909-0.277H372.921z"/>
		<path fill="#555965" d="M394.133,18.354h-3.227l-0.67,2.146h-2.085l3.356-9.953h2.044l3.343,9.953h-2.085L394.133,18.354z
			 M391.398,16.788h2.249l-1.101-3.507h-0.041L391.398,16.788z"/>
		<path fill="#555965" d="M397.734,20.5v-7.396h3.09c0.984,0,1.751,0.173,2.3,0.52c0.55,0.346,0.824,0.861,0.824,1.545
			c0,0.346-0.115,0.654-0.346,0.923c-0.229,0.269-0.557,0.474-0.98,0.615c0.561,0.109,0.985,0.315,1.275,0.619
			c0.289,0.303,0.434,0.657,0.434,1.063c0,0.697-0.261,1.224-0.783,1.579c-0.521,0.355-1.27,0.533-2.245,0.533H397.734z
			 M399.73,16.118h1.148c0.369,0,0.642-0.059,0.817-0.178c0.175-0.119,0.263-0.296,0.263-0.533c0-0.269-0.094-0.466-0.28-0.591
			s-0.472-0.188-0.854-0.188h-1.094V16.118z M399.73,17.417v1.565h1.572c0.351,0,0.61-0.065,0.779-0.195s0.253-0.322,0.253-0.578
			s-0.081-0.451-0.242-0.588c-0.162-0.137-0.426-0.205-0.79-0.205H399.73z"/>
		<path fill="#555965" d="M410.481,14.648h-3.056V20.5h-1.996v-7.396h5.052V14.648z"/>
		<path fill="#555965" d="M413.904,17.396l0.082,0.41h0.041l1.415-4.703h2.146l-3.001,8.504c-0.21,0.529-0.494,0.974-0.854,1.336
			s-0.9,0.543-1.62,0.543c-0.169,0-0.324-0.014-0.469-0.041c-0.143-0.027-0.317-0.066-0.522-0.116l0.232-1.456
			c0.06,0.009,0.123,0.018,0.191,0.027s0.13,0.014,0.185,0.014c0.328,0,0.581-0.081,0.759-0.243s0.314-0.363,0.41-0.605l0.232-0.574
			l-2.625-7.39h2.146L413.904,17.396z"/>
		<path fill="#555965" d="M421.32,19.112c0.347,0,0.622-0.104,0.827-0.311s0.308-0.484,0.308-0.831h1.818l0.014,0.041
			c0.019,0.748-0.26,1.373-0.834,1.876s-1.285,0.755-2.133,0.755c-1.094,0-1.939-0.35-2.536-1.049s-0.896-1.594-0.896-2.683v-0.205
			c0-1.084,0.297-1.979,0.893-2.683c0.594-0.704,1.437-1.056,2.525-1.056c0.902,0,1.629,0.26,2.181,0.779s0.818,1.203,0.8,2.051
			l-0.014,0.041h-1.818c0-0.383-0.102-0.701-0.305-0.954c-0.202-0.253-0.483-0.379-0.844-0.379c-0.515,0-0.881,0.206-1.098,0.619
			c-0.216,0.413-0.324,0.94-0.324,1.583v0.205c0,0.656,0.108,1.187,0.324,1.593C420.426,18.91,420.796,19.112,421.32,19.112z"/>
		<path fill="#555965" d="M431.641,14.628h-2.365V20.5h-2.003v-5.872h-2.331v-1.524h6.699V14.628z"/>
		<path fill="#555965" d="M450.487,17.205l0.014,0.041c0.019,1.062-0.306,1.894-0.971,2.495s-1.584,0.902-2.755,0.902
			c-1.194,0-2.158-0.384-2.892-1.152s-1.101-1.76-1.101-2.977v-1.976c0-1.212,0.357-2.205,1.073-2.977s1.654-1.159,2.816-1.159
			c1.212,0,2.16,0.296,2.844,0.889s1.017,1.426,0.998,2.502l-0.014,0.041h-1.941c0-0.638-0.154-1.113-0.461-1.425
			c-0.309-0.312-0.783-0.468-1.426-0.468c-0.597,0-1.063,0.24-1.398,0.721c-0.334,0.481-0.502,1.102-0.502,1.863v1.989
			c0,0.766,0.177,1.39,0.529,1.873c0.354,0.483,0.845,0.725,1.474,0.725c0.597,0,1.042-0.156,1.337-0.468
			c0.293-0.312,0.44-0.792,0.44-1.439H450.487z"/>
		<path fill="#555965" d="M454.915,20.644c-1.103,0-1.964-0.338-2.584-1.015s-0.93-1.548-0.93-2.615V16.74
			c0-1.107,0.301-2.014,0.902-2.721s1.429-1.057,2.481-1.053c0.993,0,1.756,0.304,2.287,0.913c0.53,0.608,0.796,1.428,0.796,2.458
			v1.032h-4.409l-0.021,0.041c0.032,0.506,0.186,0.916,0.462,1.23c0.275,0.314,0.685,0.472,1.227,0.472
			c0.446,0,0.826-0.045,1.139-0.137c0.312-0.091,0.634-0.23,0.967-0.417l0.54,1.23c-0.296,0.242-0.697,0.444-1.203,0.608
			S455.512,20.644,454.915,20.644z M454.785,14.505c-0.401,0-0.71,0.138-0.926,0.414c-0.217,0.276-0.348,0.642-0.394,1.097
			l0.014,0.034h2.434v-0.15c0-0.433-0.089-0.773-0.267-1.022S455.182,14.505,454.785,14.505z"/>
		<path fill="#555965" d="M465.353,20.5h-1.996v-2.871h-2.434V20.5h-1.996v-7.396h1.996v2.994h2.434v-2.994h1.996V20.5z"/>
		<path fill="#555965" d="M473.055,14.628h-2.365V20.5h-2.003v-5.872h-2.331v-1.524h6.699V14.628z"/>
		<path fill="#555965" d="M480.271,13.104V20.5h-1.982v-2.591h-1.203l-1.449,2.591h-2.017l1.634-2.919
			c-0.451-0.201-0.799-0.476-1.043-0.827c-0.243-0.351-0.365-0.75-0.365-1.196c0-0.72,0.286-1.309,0.857-1.767
			c0.572-0.458,1.344-0.687,2.314-0.687H480.271z M475.842,15.612c0,0.255,0.1,0.478,0.297,0.667
			c0.199,0.189,0.48,0.284,0.845,0.284h1.306v-1.935h-1.271c-0.374,0-0.663,0.1-0.868,0.301S475.842,15.357,475.842,15.612z"/>
		<path fill="#555965" d="M485.206,12.967c1.039,0,1.853,0.351,2.44,1.053s0.882,1.606,0.882,2.714v0.144
			c0,1.112-0.309,2.018-0.926,2.717c-0.618,0.7-1.469,1.049-2.554,1.049c-1.099,0-1.956-0.35-2.573-1.049
			c-0.618-0.7-0.927-1.605-0.927-2.717v-0.144c0-0.027,0-0.051,0-0.072s0.002-0.042,0.007-0.065v-1.579
			c0-1.522,0.277-2.619,0.83-3.292c0.555-0.672,1.424-1.024,2.608-1.056c0.602-0.014,1.045-0.081,1.329-0.202
			c0.285-0.121,0.428-0.325,0.428-0.612h1.545l0.007,0.041c0.022,0.875-0.222,1.482-0.735,1.822
			c-0.512,0.339-1.313,0.519-2.402,0.537c-0.675,0.014-1.186,0.16-1.535,0.438c-0.348,0.278-0.507,0.652-0.475,1.121l0.021,0.034
			c0.232-0.255,0.527-0.466,0.886-0.632C484.419,13.05,484.801,12.967,485.206,12.967z M485.035,14.505
			c-0.52,0-0.897,0.208-1.135,0.622s-0.355,0.95-0.355,1.606v0.144c0,0.674,0.118,1.216,0.355,1.624s0.62,0.612,1.148,0.612
			c0.515,0,0.892-0.205,1.132-0.615c0.238-0.41,0.358-0.95,0.358-1.62v-0.144c0-0.656-0.121-1.192-0.362-1.606
			S485.555,14.505,485.035,14.505z"/>
		<path fill="#555965" d="M496.203,17.007c0,1.094-0.253,1.973-0.759,2.639s-1.212,0.998-2.119,0.998
			c-0.388,0-0.731-0.072-1.032-0.215s-0.559-0.354-0.772-0.632v3.548h-1.989v-10.24h1.798l0.116,0.875
			c0.219-0.324,0.482-0.573,0.789-0.749c0.309-0.175,0.667-0.263,1.077-0.263c0.916,0,1.627,0.358,2.133,1.073
			s0.759,1.657,0.759,2.823V17.007z M494.207,16.863c0-0.697-0.116-1.262-0.349-1.695s-0.588-0.649-1.066-0.649
			c-0.301,0-0.558,0.062-0.769,0.185c-0.213,0.123-0.38,0.298-0.503,0.526v3.24c0.123,0.209,0.29,0.369,0.503,0.479
			c0.211,0.109,0.473,0.164,0.782,0.164c0.483,0,0.837-0.189,1.063-0.567c0.225-0.378,0.338-0.891,0.338-1.538V16.863z"/>
		<path fill="#555965" d="M499.353,15.496h1.388c0.993,0,1.775,0.229,2.345,0.687s0.854,1.059,0.854,1.801
			c0,0.752-0.285,1.359-0.854,1.822s-1.352,0.694-2.345,0.694h-3.391v-7.396h2.003V15.496z M499.353,17.027v1.948h1.388
			c0.405,0,0.709-0.091,0.909-0.273s0.301-0.417,0.301-0.704c0-0.278-0.101-0.509-0.301-0.694s-0.504-0.277-0.909-0.277H499.353z"/>
		<path fill="#555965" d="M526.846,16.419c0,1.226-0.385,2.236-1.155,3.032s-1.772,1.193-3.008,1.193
			c-1.23,0-2.229-0.399-2.994-1.196s-1.148-1.807-1.148-3.028v-1.791c0-1.217,0.382-2.225,1.146-3.025
			c0.763-0.8,1.758-1.2,2.983-1.2c1.235,0,2.24,0.4,3.015,1.2s1.162,1.808,1.162,3.025V16.419z M524.856,14.614
			c0-0.775-0.193-1.411-0.581-1.907s-0.923-0.745-1.606-0.745c-0.675,0-1.2,0.249-1.575,0.745c-0.377,0.497-0.564,1.132-0.564,1.907
			v1.805c0,0.789,0.189,1.431,0.567,1.928s0.907,0.745,1.586,0.745c0.684,0,1.217-0.249,1.6-0.745s0.574-1.139,0.574-1.928V14.614z"
			/>
		<path fill="#555965" d="M531.082,17.731h-0.766V20.5h-1.996v-7.396h1.996v2.816h0.595l1.695-2.816h2.522l-2.447,3.432l2.666,3.965
			h-2.659L531.082,17.731z"/>
		<path fill="#555965" d="M542.374,14.628h-2.365V20.5h-2.003v-5.872h-2.331v-1.524h6.699V14.628z"/>
		<path fill="#555965" d="M549.591,13.104V20.5h-1.982v-2.591h-1.203l-1.449,2.591h-2.017l1.634-2.919
			c-0.451-0.201-0.799-0.476-1.043-0.827c-0.243-0.351-0.365-0.75-0.365-1.196c0-0.72,0.286-1.309,0.857-1.767
			c0.572-0.458,1.344-0.687,2.314-0.687H549.591z M545.161,15.612c0,0.255,0.1,0.478,0.297,0.667
			c0.199,0.189,0.48,0.284,0.845,0.284h1.306v-1.935h-1.271c-0.374,0-0.663,0.1-0.868,0.301S545.161,15.357,545.161,15.612z"/>
		<path fill="#555965" d="M554.524,12.967c1.039,0,1.853,0.351,2.44,1.053s0.882,1.606,0.882,2.714v0.144
			c0,1.112-0.309,2.018-0.926,2.717c-0.618,0.7-1.469,1.049-2.554,1.049c-1.099,0-1.956-0.35-2.573-1.049
			c-0.618-0.7-0.927-1.605-0.927-2.717v-0.144c0-0.027,0-0.051,0-0.072s0.002-0.042,0.007-0.065v-1.579
			c0-1.522,0.277-2.619,0.83-3.292c0.555-0.672,1.424-1.024,2.608-1.056c0.602-0.014,1.045-0.081,1.329-0.202
			c0.285-0.121,0.428-0.325,0.428-0.612h1.545l0.007,0.041c0.022,0.875-0.222,1.482-0.735,1.822
			c-0.512,0.339-1.313,0.519-2.402,0.537c-0.675,0.014-1.186,0.16-1.535,0.438c-0.348,0.278-0.507,0.652-0.475,1.121l0.021,0.034
			c0.232-0.255,0.527-0.466,0.886-0.632C553.737,13.05,554.119,12.967,554.524,12.967z M554.354,14.505
			c-0.52,0-0.897,0.208-1.135,0.622s-0.355,0.95-0.355,1.606v0.144c0,0.674,0.118,1.216,0.355,1.624s0.62,0.612,1.148,0.612
			c0.515,0,0.892-0.205,1.132-0.615c0.238-0.41,0.358-0.95,0.358-1.62v-0.144c0-0.656-0.121-1.192-0.362-1.606
			S554.873,14.505,554.354,14.505z"/>
		<path fill="#555965" d="M565.522,17.007c0,1.094-0.253,1.973-0.759,2.639s-1.212,0.998-2.119,0.998
			c-0.388,0-0.731-0.072-1.032-0.215s-0.559-0.354-0.772-0.632v3.548h-1.989v-10.24h1.798l0.116,0.875
			c0.219-0.324,0.482-0.573,0.789-0.749c0.309-0.175,0.667-0.263,1.077-0.263c0.916,0,1.627,0.358,2.133,1.073
			s0.759,1.657,0.759,2.823V17.007z M563.526,16.863c0-0.697-0.116-1.262-0.349-1.695s-0.588-0.649-1.066-0.649
			c-0.301,0-0.558,0.062-0.769,0.185c-0.213,0.123-0.38,0.298-0.503,0.526v3.24c0.123,0.209,0.29,0.369,0.503,0.479
			c0.211,0.109,0.473,0.164,0.782,0.164c0.483,0,0.837-0.189,1.063-0.567c0.225-0.378,0.338-0.891,0.338-1.538V16.863z"/>
		<path fill="#555965" d="M568.672,15.496h1.388c0.993,0,1.775,0.229,2.345,0.687s0.854,1.059,0.854,1.801
			c0,0.752-0.285,1.359-0.854,1.822s-1.352,0.694-2.345,0.694h-3.391v-7.396h2.003V15.496z M568.672,17.027v1.948h1.388
			c0.405,0,0.709-0.091,0.909-0.273s0.301-0.417,0.301-0.704c0-0.278-0.101-0.509-0.301-0.694s-0.504-0.277-0.909-0.277H568.672z"/>
		<path fill="#555965" d="M596.157,20.5h-1.996v-4.136h-4.054V20.5h-1.996v-9.953h1.996v4.279h4.054v-4.279h1.996V20.5z"/>
		<path fill="#555965" d="M597.462,16.733c0-1.103,0.308-2.006,0.923-2.71s1.468-1.056,2.557-1.056c1.094,0,1.95,0.351,2.57,1.053
			s0.93,1.606,0.93,2.714v0.144c0,1.112-0.309,2.018-0.926,2.717c-0.618,0.7-1.472,1.049-2.561,1.049
			c-1.094,0-1.949-0.35-2.566-1.049c-0.618-0.7-0.927-1.605-0.927-2.717V16.733z M599.451,16.877c0,0.674,0.118,1.216,0.355,1.624
			s0.62,0.612,1.148,0.612c0.515,0,0.893-0.205,1.131-0.615c0.24-0.41,0.359-0.95,0.359-1.62v-0.144
			c0-0.656-0.121-1.192-0.362-1.606s-0.622-0.622-1.142-0.622c-0.515,0-0.893,0.208-1.131,0.625
			c-0.24,0.417-0.359,0.951-0.359,1.603V16.877z"/>
		<path fill="#555965" d="M611.836,13.104V20.5h-1.982v-2.591h-1.203l-1.449,2.591h-2.017l1.634-2.919
			c-0.451-0.201-0.799-0.476-1.043-0.827c-0.243-0.351-0.365-0.75-0.365-1.196c0-0.72,0.286-1.309,0.857-1.767
			c0.572-0.458,1.344-0.687,2.314-0.687H611.836z M607.406,15.612c0,0.255,0.1,0.478,0.297,0.667
			c0.199,0.189,0.48,0.284,0.845,0.284h1.306v-1.935h-1.271c-0.374,0-0.663,0.1-0.868,0.301S607.406,15.357,607.406,15.612z"/>
		<path fill="#555965" d="M616.77,12.967c1.039,0,1.853,0.351,2.44,1.053s0.882,1.606,0.882,2.714v0.144
			c0,1.112-0.309,2.018-0.926,2.717c-0.618,0.7-1.469,1.049-2.554,1.049c-1.099,0-1.956-0.35-2.573-1.049
			c-0.618-0.7-0.927-1.605-0.927-2.717v-0.144c0-0.027,0-0.051,0-0.072s0.002-0.042,0.007-0.065v-1.579
			c0-1.522,0.277-2.619,0.83-3.292c0.555-0.672,1.424-1.024,2.608-1.056c0.602-0.014,1.045-0.081,1.329-0.202
			c0.285-0.121,0.428-0.325,0.428-0.612h1.545l0.007,0.041c0.022,0.875-0.222,1.482-0.735,1.822
			c-0.512,0.339-1.313,0.519-2.402,0.537c-0.675,0.014-1.186,0.16-1.535,0.438c-0.348,0.278-0.507,0.652-0.475,1.121l0.021,0.034
			c0.232-0.255,0.527-0.466,0.886-0.632C615.982,13.05,616.364,12.967,616.77,12.967z M616.599,14.505
			c-0.52,0-0.897,0.208-1.135,0.622s-0.355,0.95-0.355,1.606v0.144c0,0.674,0.118,1.216,0.355,1.624s0.62,0.612,1.148,0.612
			c0.515,0,0.892-0.205,1.132-0.615c0.238-0.41,0.358-0.95,0.358-1.62v-0.144c0-0.656-0.121-1.192-0.362-1.606
			S617.118,14.505,616.599,14.505z"/>
		<path fill="#555965" d="M627.768,17.007c0,1.094-0.253,1.973-0.759,2.639s-1.212,0.998-2.119,0.998
			c-0.388,0-0.731-0.072-1.032-0.215s-0.559-0.354-0.772-0.632v3.548h-1.989v-10.24h1.798l0.116,0.875
			c0.219-0.324,0.482-0.573,0.789-0.749c0.309-0.175,0.667-0.263,1.077-0.263c0.916,0,1.627,0.358,2.133,1.073
			s0.759,1.657,0.759,2.823V17.007z M625.771,16.863c0-0.697-0.116-1.262-0.349-1.695s-0.588-0.649-1.066-0.649
			c-0.301,0-0.558,0.062-0.769,0.185c-0.213,0.123-0.38,0.298-0.503,0.526v3.24c0.123,0.209,0.29,0.369,0.503,0.479
			c0.211,0.109,0.473,0.164,0.782,0.164c0.483,0,0.837-0.189,1.063-0.567c0.225-0.378,0.338-0.891,0.338-1.538V16.863z"/>
		<path fill="#555965" d="M630.917,15.496h1.388c0.993,0,1.775,0.229,2.345,0.687s0.854,1.059,0.854,1.801
			c0,0.752-0.285,1.359-0.854,1.822s-1.352,0.694-2.345,0.694h-3.391v-7.396h2.003V15.496z M630.917,17.027v1.948h1.388
			c0.405,0,0.709-0.091,0.909-0.273s0.301-0.417,0.301-0.704c0-0.278-0.101-0.509-0.301-0.694s-0.504-0.277-0.909-0.277H630.917z"/>
		<path fill="#555965" d="M659.511,22.947h-1.996V20.5h-5.988v2.447h-1.989v-3.979h0.581c0.52,0,0.894-0.346,1.121-1.039
			s0.376-1.795,0.444-3.309l0.226-4.074h6.419v8.422h1.183V22.947z M653.68,14.621c-0.046,0.961-0.15,1.805-0.314,2.529
			s-0.388,1.331-0.67,1.818h3.644v-6.884h-2.522L653.68,14.621z"/>
		<path fill="#555965" d="M663.357,20.644c-1.103,0-1.964-0.338-2.584-1.015s-0.93-1.548-0.93-2.615V16.74
			c0-1.107,0.301-2.014,0.902-2.721s1.429-1.057,2.481-1.053c0.993,0,1.756,0.304,2.287,0.913c0.53,0.608,0.796,1.428,0.796,2.458
			v1.032h-4.409l-0.021,0.041c0.032,0.506,0.186,0.916,0.462,1.23c0.275,0.314,0.685,0.472,1.227,0.472
			c0.446,0,0.826-0.045,1.139-0.137c0.312-0.091,0.634-0.23,0.967-0.417l0.54,1.23c-0.296,0.242-0.697,0.444-1.203,0.608
			S663.954,20.644,663.357,20.644z M663.228,14.505c-0.401,0-0.71,0.138-0.926,0.414c-0.217,0.276-0.348,0.642-0.394,1.097
			l0.014,0.034h2.434v-0.15c0-0.433-0.089-0.773-0.267-1.022S663.624,14.505,663.228,14.505z"/>
		<path fill="#555965" d="M670.28,17.731h-0.766V20.5h-1.996v-7.396h1.996v2.816h0.595l1.695-2.816h2.522l-2.447,3.432l2.666,3.965
			h-2.659L670.28,17.731z"/>
		<path fill="#555965" d="M679.672,20.5c-0.073-0.168-0.136-0.346-0.188-0.533c-0.053-0.187-0.091-0.378-0.113-0.574
			c-0.205,0.36-0.477,0.659-0.813,0.896s-0.738,0.355-1.203,0.355c-0.774,0-1.372-0.199-1.791-0.598s-0.629-0.942-0.629-1.63
			c0-0.725,0.279-1.286,0.837-1.685c0.559-0.399,1.373-0.598,2.444-0.598h1.121v-0.588c0-0.355-0.094-0.631-0.28-0.827
			s-0.465-0.294-0.834-0.294c-0.323,0-0.573,0.079-0.748,0.236c-0.176,0.157-0.264,0.373-0.264,0.646h-1.921l-0.014-0.041
			c-0.032-0.625,0.24-1.163,0.817-1.617c0.576-0.454,1.329-0.68,2.259-0.68c0.889,0,1.607,0.223,2.157,0.67
			c0.549,0.447,0.823,1.087,0.823,1.921v3.056c0,0.346,0.026,0.672,0.079,0.978c0.052,0.305,0.135,0.608,0.249,0.909H679.672z
			 M677.847,19.167c0.347,0,0.656-0.086,0.93-0.26s0.46-0.374,0.561-0.602V17.26h-1.121c-0.424,0-0.744,0.105-0.96,0.314
			c-0.217,0.209-0.325,0.467-0.325,0.772c0,0.25,0.081,0.45,0.243,0.598C677.335,19.093,677.56,19.167,677.847,19.167z"/>
		<path fill="#555965" d="M686.096,12.967c1.039,0,1.853,0.351,2.44,1.053s0.882,1.606,0.882,2.714v0.144
			c0,1.112-0.309,2.018-0.926,2.717c-0.618,0.7-1.469,1.049-2.554,1.049c-1.099,0-1.956-0.35-2.573-1.049
			c-0.618-0.7-0.927-1.605-0.927-2.717v-0.144c0-0.027,0-0.051,0-0.072s0.002-0.042,0.007-0.065v-1.579
			c0-1.522,0.277-2.619,0.83-3.292c0.555-0.672,1.424-1.024,2.608-1.056c0.602-0.014,1.045-0.081,1.329-0.202
			c0.285-0.121,0.428-0.325,0.428-0.612h1.545l0.007,0.041c0.022,0.875-0.222,1.482-0.735,1.822
			c-0.512,0.339-1.313,0.519-2.402,0.537c-0.675,0.014-1.186,0.16-1.535,0.438c-0.348,0.278-0.507,0.652-0.475,1.121l0.021,0.034
			c0.232-0.255,0.527-0.466,0.886-0.632C685.309,13.05,685.69,12.967,686.096,12.967z M685.925,14.505
			c-0.52,0-0.897,0.208-1.135,0.622s-0.355,0.95-0.355,1.606v0.144c0,0.674,0.118,1.216,0.355,1.624s0.62,0.612,1.148,0.612
			c0.515,0,0.892-0.205,1.132-0.615c0.238-0.41,0.358-0.95,0.358-1.62v-0.144c0-0.656-0.121-1.192-0.362-1.606
			S686.444,14.505,685.925,14.505z"/>
		<path fill="#555965" d="M697.093,17.007c0,1.094-0.253,1.973-0.759,2.639s-1.212,0.998-2.119,0.998
			c-0.388,0-0.731-0.072-1.032-0.215s-0.559-0.354-0.772-0.632v3.548h-1.989v-10.24h1.798l0.116,0.875
			c0.219-0.324,0.482-0.573,0.789-0.749c0.309-0.175,0.667-0.263,1.077-0.263c0.916,0,1.627,0.358,2.133,1.073
			s0.759,1.657,0.759,2.823V17.007z M695.097,16.863c0-0.697-0.116-1.262-0.349-1.695s-0.588-0.649-1.066-0.649
			c-0.301,0-0.558,0.062-0.769,0.185c-0.213,0.123-0.38,0.298-0.503,0.526v3.24c0.123,0.209,0.29,0.369,0.503,0.479
			c0.211,0.109,0.473,0.164,0.782,0.164c0.483,0,0.837-0.189,1.063-0.567c0.225-0.378,0.338-0.891,0.338-1.538V16.863z"/>
		<path fill="#555965" d="M700.243,15.496h1.388c0.993,0,1.775,0.229,2.345,0.687s0.854,1.059,0.854,1.801
			c0,0.752-0.285,1.359-0.854,1.822s-1.352,0.694-2.345,0.694h-3.391v-7.396h2.003V15.496z M700.243,17.027v1.948h1.388
			c0.405,0,0.709-0.091,0.909-0.273s0.301-0.417,0.301-0.704c0-0.278-0.101-0.509-0.301-0.694s-0.504-0.277-0.909-0.277H700.243z"/>
	</g>
	<g>
		<path fill="#6CC1E3" d="M723.248,12.173h3.105l0.849,2.961c0.128,0.464,0.353,1.265,0.513,1.969h0.047
			c0.145-0.544,0.4-1.393,0.625-2.145l0.864-2.785h3.073l0.48,7.827h-2.258l-0.127-3.137c-0.017-0.672-0.064-1.809-0.08-2.737
			h-0.049c-0.304,1.041-0.352,1.297-0.752,2.561l-1.041,3.186h-1.776l-0.929-3.105c-0.207-0.752-0.464-1.856-0.64-2.593h-0.063
			c-0.033,0.976-0.049,2.081-0.08,2.737L724.881,20h-2.177L723.248,12.173z"/>
		<path fill="#6CC1E3" d="M734.736,12.173h3.105l0.848,2.961c0.129,0.464,0.353,1.265,0.513,1.969h0.048
			c0.145-0.544,0.4-1.393,0.625-2.145l0.863-2.785h3.074L744.292,20h-2.257l-0.128-3.137c-0.017-0.672-0.063-1.809-0.08-2.737
			h-0.048c-0.305,1.041-0.353,1.297-0.752,2.561l-1.041,3.186h-1.777l-0.928-3.105c-0.208-0.752-0.464-1.856-0.641-2.593h-0.063
			c-0.032,0.976-0.048,2.081-0.08,2.737L736.369,20h-2.178L734.736,12.173z"/>
	</g>
	<g>
		<g>
			<rect x="36" y="248" fill="#BFE3F3" width="60" height="19.5"/>
			<rect x="96" y="248" fill="#B5D9E9" width="9" height="19.5"/>
		</g>
		<circle fill="#6CC1E3" cx="266.625" cy="257.5" r="5.25"/>
		<g>
			<path fill="#666666" d="M113.095,258.013h-3.191v-0.833h3.191V258.013z"/>
			<path fill="#666666" d="M120.851,259.527h0.032l1.915-4.457h1.33v5.853h-1.065v-4.062l-0.032-0.011l-1.796,4.072h-0.735
				l-1.828-4.165l-0.033,0.011v4.154h-1.065v-5.853h1.374L120.851,259.527z"/>
			<path fill="#666666" d="M129.461,255.07h1.065v5.853h-1.065v-4.154l-0.032-0.011l-2.585,4.165h-1.061v-5.853h1.061v4.154
				l0.032,0.011L129.461,255.07z"/>
			<path fill="#666666" d="M136.817,260.923h-1.065v-2.488h-2.607v2.488h-1.065v-5.853h1.065v2.531h2.607v-2.531h1.065V260.923z"/>
			<path fill="#666666" d="M139.538,260.923h-1.065v-1.093h1.065V260.923z"/>
			<path fill="#666666" d="M141.561,261.599h-0.908l3.288-8.551h0.903L141.561,261.599z"/>
			<path fill="#666666" d="M149.268,259.527h0.032l1.915-4.457h1.33v5.853h-1.065v-4.062l-0.032-0.011l-1.796,4.072h-0.735
				l-1.828-4.165l-0.033,0.011v4.154h-1.065v-5.853h1.374L149.268,259.527z"/>
			<path fill="#666666" d="M157.797,260.923c-0.036-0.177-0.063-0.333-0.084-0.468c-0.02-0.136-0.031-0.271-0.035-0.408
				c-0.198,0.281-0.457,0.517-0.776,0.706c-0.318,0.188-0.662,0.283-1.03,0.283c-0.609,0-1.073-0.155-1.393-0.468
				c-0.319-0.312-0.479-0.741-0.479-1.29c0-0.559,0.227-0.996,0.679-1.312s1.066-0.473,1.842-0.473h1.157v-0.579
				c0-0.343-0.104-0.614-0.313-0.814c-0.209-0.199-0.505-0.3-0.887-0.3c-0.347,0-0.626,0.087-0.839,0.26s-0.319,0.38-0.319,0.622
				l-1.011,0.011l-0.011-0.032c-0.025-0.426,0.174-0.815,0.598-1.169c0.424-0.353,0.971-0.529,1.642-0.529
				c0.663,0,1.196,0.168,1.601,0.505c0.404,0.338,0.605,0.823,0.605,1.458v2.818c0,0.209,0.011,0.411,0.033,0.605
				c0.021,0.194,0.061,0.386,0.118,0.573H157.797z M156.028,260.144c0.386,0,0.733-0.099,1.044-0.297
				c0.31-0.198,0.512-0.426,0.605-0.682v-0.952h-1.195c-0.429,0-0.772,0.108-1.03,0.325c-0.258,0.216-0.387,0.47-0.387,0.762
				c0,0.26,0.081,0.466,0.243,0.617C155.472,260.068,155.711,260.144,156.028,260.144z"/>
			<path fill="#666666" d="M161.957,258.44h-0.547v2.482h-1.065v-5.853h1.065v2.472h0.455l2.093-2.472h1.25l0.011,0.027l-2.429,2.78
				l2.612,3.018l-0.011,0.027h-1.31L161.957,258.44z"/>
			<path fill="#666666" d="M168.588,260.203c0.328,0,0.614-0.108,0.859-0.327c0.245-0.218,0.368-0.485,0.368-0.803h0.963
				l0.016,0.032c0.015,0.505-0.202,0.953-0.648,1.344c-0.447,0.392-0.967,0.587-1.558,0.587c-0.822,0-1.457-0.279-1.904-0.838
				s-0.671-1.255-0.671-2.088v-0.228c0-0.825,0.225-1.519,0.674-2.079c0.448-0.561,1.082-0.841,1.901-0.841
				c0.652,0,1.187,0.201,1.604,0.605c0.416,0.403,0.617,0.899,0.603,1.487l-0.011,0.032h-0.968c0-0.356-0.116-0.66-0.349-0.911
				c-0.233-0.251-0.526-0.376-0.879-0.376c-0.523,0-0.904,0.203-1.145,0.608c-0.239,0.406-0.359,0.897-0.359,1.474v0.228
				c0,0.588,0.118,1.084,0.354,1.487C167.674,260.002,168.058,260.203,168.588,260.203z"/>
			<path fill="#666666" d="M173.223,260.923h-1.065v-1.093h1.065V260.923z"/>
			<path fill="#666666" d="M182.287,255.898h-1.931v5.024h-1.065v-5.024h-1.904v-0.828h4.9V255.898z"/>
			<path fill="#666666" d="M185.771,261.036c-0.84,0-1.495-0.269-1.966-0.806s-0.706-1.244-0.706-2.12v-0.238
				c0-0.84,0.243-1.535,0.728-2.085c0.485-0.55,1.077-0.824,1.777-0.824c0.782,0,1.369,0.243,1.76,0.729
				c0.392,0.487,0.587,1.135,0.587,1.942v0.563h-3.742l-0.017,0.026c0,0.588,0.13,1.065,0.39,1.431
				c0.26,0.366,0.656,0.549,1.189,0.549c0.36,0,0.677-0.051,0.949-0.153c0.272-0.104,0.506-0.245,0.7-0.425l0.417,0.692
				c-0.209,0.202-0.485,0.372-0.827,0.511C186.667,260.967,186.254,261.036,185.771,261.036z M185.604,255.801
				c-0.372,0-0.68,0.144-0.923,0.43c-0.243,0.287-0.392,0.654-0.446,1.101l0.011,0.027h2.64v-0.086c0-0.426-0.104-0.777-0.313-1.055
				C186.362,255.939,186.039,255.801,185.604,255.801z"/>
			<path fill="#666666" d="M192.478,259.527h0.032l1.915-4.457h1.33v5.853h-1.065v-4.062l-0.032-0.011l-1.796,4.072h-0.735
				l-1.828-4.165l-0.033,0.011v4.154h-1.065v-5.853h1.374L192.478,259.527z"/>
			<path fill="#666666" d="M202.153,260.923h-1.065v-5.009h-2.612v5.009h-1.065v-5.853h4.743V260.923z"/>
			<path fill="#666666" d="M206.129,261.036c-0.84,0-1.495-0.269-1.966-0.806s-0.706-1.244-0.706-2.12v-0.238
				c0-0.84,0.243-1.535,0.728-2.085c0.485-0.55,1.077-0.824,1.777-0.824c0.782,0,1.369,0.243,1.76,0.729
				c0.392,0.487,0.587,1.135,0.587,1.942v0.563h-3.742l-0.017,0.026c0,0.588,0.13,1.065,0.39,1.431
				c0.26,0.366,0.656,0.549,1.189,0.549c0.36,0,0.677-0.051,0.949-0.153c0.272-0.104,0.506-0.245,0.7-0.425l0.417,0.692
				c-0.209,0.202-0.485,0.372-0.827,0.511C207.025,260.967,206.612,261.036,206.129,261.036z M205.962,255.801
				c-0.372,0-0.68,0.144-0.923,0.43c-0.243,0.287-0.392,0.654-0.446,1.101l0.011,0.027h2.64v-0.086c0-0.426-0.104-0.777-0.313-1.055
				C206.721,255.939,206.397,255.801,205.962,255.801z"/>
			<path fill="#666666" d="M214.491,258.219c0,0.844-0.202,1.524-0.606,2.042c-0.403,0.517-0.961,0.775-1.671,0.775
				c-0.36,0-0.677-0.061-0.949-0.181c-0.272-0.121-0.504-0.302-0.695-0.544v2.861h-1.065v-8.103h0.816l0.168,0.758
				c0.191-0.281,0.429-0.496,0.714-0.644c0.285-0.148,0.616-0.222,0.995-0.222c0.725,0,1.288,0.287,1.69,0.862
				s0.604,1.335,0.604,2.279V258.219z M213.425,258.104c0-0.663-0.13-1.208-0.392-1.636c-0.262-0.427-0.646-0.641-1.155-0.641
				c-0.306,0-0.567,0.069-0.784,0.208c-0.216,0.139-0.391,0.329-0.524,0.57v2.829c0.134,0.241,0.309,0.43,0.524,0.565
				c0.217,0.135,0.481,0.202,0.795,0.202c0.505,0,0.888-0.185,1.147-0.554c0.259-0.37,0.389-0.847,0.389-1.431V258.104z"/>
			<path fill="#666666" d="M219.396,260.923c-0.036-0.177-0.063-0.333-0.084-0.468c-0.02-0.136-0.031-0.271-0.035-0.408
				c-0.198,0.281-0.457,0.517-0.776,0.706c-0.318,0.188-0.662,0.283-1.03,0.283c-0.609,0-1.073-0.155-1.393-0.468
				c-0.319-0.312-0.479-0.741-0.479-1.29c0-0.559,0.227-0.996,0.679-1.312s1.066-0.473,1.842-0.473h1.157v-0.579
				c0-0.343-0.104-0.614-0.313-0.814c-0.209-0.199-0.505-0.3-0.887-0.3c-0.347,0-0.626,0.087-0.839,0.26s-0.319,0.38-0.319,0.622
				l-1.011,0.011l-0.011-0.032c-0.025-0.426,0.174-0.815,0.598-1.169c0.424-0.353,0.971-0.529,1.642-0.529
				c0.663,0,1.196,0.168,1.601,0.505c0.404,0.338,0.605,0.823,0.605,1.458v2.818c0,0.209,0.011,0.411,0.033,0.605
				c0.021,0.194,0.061,0.386,0.118,0.573H219.396z M217.628,260.144c0.386,0,0.733-0.099,1.044-0.297
				c0.31-0.198,0.512-0.426,0.605-0.682v-0.952h-1.195c-0.429,0-0.772,0.108-1.03,0.325c-0.258,0.216-0.387,0.47-0.387,0.762
				c0,0.26,0.081,0.466,0.243,0.617C217.071,260.068,217.311,260.144,217.628,260.144z"/>
			<path fill="#666666" d="M226.314,255.898h-1.931v5.024h-1.065v-5.024h-1.904v-0.828h4.9V255.898z"/>
			<path fill="#666666" d="M229.321,258.754l0.189,0.735h0.032l1.439-4.419h1.184l-2.461,6.75c-0.147,0.394-0.359,0.736-0.635,1.028
				c-0.276,0.292-0.648,0.438-1.117,0.438c-0.087,0-0.196-0.01-0.33-0.029c-0.133-0.02-0.236-0.039-0.309-0.057l0.108-0.839
				c-0.021-0.003,0.043,0,0.192,0.011s0.244,0.017,0.284,0.017c0.227,0,0.412-0.101,0.557-0.303s0.265-0.426,0.362-0.671
				l0.254-0.611l-2.174-5.733h1.189L229.321,258.754z"/>
			<path fill="#666666" d="M238.09,258.219c0,0.844-0.202,1.524-0.606,2.042c-0.403,0.517-0.961,0.775-1.671,0.775
				c-0.36,0-0.677-0.061-0.949-0.181c-0.272-0.121-0.504-0.302-0.695-0.544v2.861h-1.065v-8.103h0.816l0.168,0.758
				c0.191-0.281,0.429-0.496,0.714-0.644c0.285-0.148,0.616-0.222,0.995-0.222c0.725,0,1.288,0.287,1.69,0.862
				s0.604,1.335,0.604,2.279V258.219z M237.023,258.104c0-0.663-0.13-1.208-0.392-1.636c-0.262-0.427-0.646-0.641-1.155-0.641
				c-0.306,0-0.567,0.069-0.784,0.208c-0.216,0.139-0.391,0.329-0.524,0.57v2.829c0.134,0.241,0.309,0.43,0.524,0.565
				c0.217,0.135,0.481,0.202,0.795,0.202c0.505,0,0.888-0.185,1.147-0.554c0.259-0.37,0.389-0.847,0.389-1.431V258.104z"/>
			<path fill="#666666" d="M242.994,260.923c-0.036-0.177-0.063-0.333-0.084-0.468c-0.02-0.136-0.031-0.271-0.035-0.408
				c-0.198,0.281-0.457,0.517-0.776,0.706c-0.318,0.188-0.662,0.283-1.03,0.283c-0.609,0-1.073-0.155-1.393-0.468
				c-0.319-0.312-0.479-0.741-0.479-1.29c0-0.559,0.227-0.996,0.679-1.312s1.066-0.473,1.842-0.473h1.157v-0.579
				c0-0.343-0.104-0.614-0.313-0.814c-0.209-0.199-0.505-0.3-0.887-0.3c-0.347,0-0.626,0.087-0.839,0.26s-0.319,0.38-0.319,0.622
				l-1.011,0.011l-0.011-0.032c-0.025-0.426,0.174-0.815,0.598-1.169c0.424-0.353,0.971-0.529,1.642-0.529
				c0.663,0,1.196,0.168,1.601,0.505c0.404,0.338,0.605,0.823,0.605,1.458v2.818c0,0.209,0.011,0.411,0.033,0.605
				c0.021,0.194,0.061,0.386,0.118,0.573H242.994z M241.226,260.144c0.386,0,0.733-0.099,1.044-0.297
				c0.31-0.198,0.512-0.426,0.605-0.682v-0.952h-1.195c-0.429,0-0.772,0.108-1.03,0.325c-0.258,0.216-0.387,0.47-0.387,0.762
				c0,0.26,0.081,0.466,0.243,0.617C240.669,260.068,240.908,260.144,241.226,260.144z"/>
		</g>
		<g>
			<path fill="#666666" d="M280.095,258.013h-3.191v-0.833h3.191V258.013z"/>
			<path fill="#666666" d="M286.185,258.44h-0.547v2.482h-1.065v-5.853h1.065v2.472h0.455l2.093-2.472h1.25l0.011,0.027l-2.429,2.78
				l2.612,3.018l-0.011,0.027h-1.31L286.185,258.44z"/>
			<path fill="#666666" d="M290.214,257.942c0-0.865,0.234-1.578,0.703-2.139s1.105-0.841,1.909-0.841
				c0.812,0,1.452,0.279,1.923,0.838s0.706,1.272,0.706,2.142v0.119c0,0.873-0.234,1.587-0.703,2.142
				c-0.469,0.556-1.107,0.833-1.915,0.833s-1.446-0.278-1.917-0.835c-0.471-0.558-0.706-1.271-0.706-2.14V257.942z M291.279,258.062
				c0,0.62,0.131,1.133,0.393,1.536c0.262,0.404,0.649,0.605,1.165,0.605c0.509,0,0.895-0.201,1.158-0.605
				c0.263-0.403,0.395-0.916,0.395-1.536v-0.119c0-0.612-0.133-1.123-0.397-1.53c-0.266-0.407-0.653-0.611-1.166-0.611
				c-0.508,0-0.893,0.204-1.154,0.611s-0.393,0.918-0.393,1.53V258.062z"/>
			<path fill="#666666" d="M301.415,255.07v5.853h-1.065v-5.009h-1.979v1.655c0,1.154-0.153,2.001-0.46,2.542
				s-0.829,0.812-1.568,0.812h-0.303l0.021-0.908l0.222-0.006c0.379,0,0.643-0.185,0.793-0.555c0.149-0.369,0.224-0.998,0.224-1.885
				v-2.499H301.415z"/>
			<path fill="#666666" d="M306.121,258.013h-3.191v-0.833h3.191V258.013z"/>
			<path fill="#666666" d="M307.798,260.923v-5.853h2.309c0.772,0,1.371,0.135,1.796,0.403c0.426,0.269,0.639,0.672,0.639,1.209
				c0,0.273-0.083,0.519-0.249,0.732c-0.166,0.215-0.4,0.378-0.703,0.49c0.364,0.09,0.648,0.258,0.852,0.505
				c0.204,0.247,0.306,0.529,0.306,0.847c0,0.548-0.199,0.963-0.598,1.244s-0.954,0.422-1.668,0.422H307.798z M308.863,257.542
				h1.249c0.451,0,0.791-0.066,1.02-0.199c0.229-0.134,0.344-0.336,0.344-0.606c0-0.277-0.115-0.486-0.347-0.627
				c-0.23-0.141-0.571-0.211-1.022-0.211h-1.243V257.542z M308.863,258.359v1.741h1.617c0.393,0,0.69-0.074,0.892-0.225
				c0.202-0.149,0.304-0.365,0.304-0.646c0-0.277-0.102-0.492-0.304-0.644c-0.201-0.151-0.499-0.227-0.892-0.227H308.863z"/>
			<path fill="#666666" d="M313.839,257.942c0-0.865,0.234-1.578,0.703-2.139s1.105-0.841,1.909-0.841
				c0.812,0,1.452,0.279,1.923,0.838s0.706,1.272,0.706,2.142v0.119c0,0.873-0.234,1.587-0.703,2.142
				c-0.469,0.556-1.107,0.833-1.915,0.833s-1.446-0.278-1.917-0.835c-0.471-0.558-0.706-1.271-0.706-2.14V257.942z M314.904,258.062
				c0,0.62,0.131,1.133,0.393,1.536c0.262,0.404,0.649,0.605,1.165,0.605c0.509,0,0.895-0.201,1.158-0.605
				c0.263-0.403,0.395-0.916,0.395-1.536v-0.119c0-0.612-0.133-1.123-0.397-1.53c-0.266-0.407-0.653-0.611-1.166-0.611
				c-0.508,0-0.893,0.204-1.154,0.611s-0.393,0.918-0.393,1.53V258.062z"/>
			<path fill="#666666" d="M322.888,257.942c0-0.865,0.234-1.578,0.703-2.139s1.105-0.841,1.909-0.841
				c0.812,0,1.452,0.279,1.923,0.838s0.706,1.272,0.706,2.142v0.119c0,0.873-0.234,1.587-0.703,2.142
				c-0.469,0.556-1.107,0.833-1.915,0.833s-1.446-0.278-1.917-0.835c-0.471-0.558-0.706-1.271-0.706-2.14V257.942z M323.953,258.062
				c0,0.62,0.131,1.133,0.393,1.536c0.262,0.404,0.649,0.605,1.165,0.605c0.509,0,0.895-0.201,1.158-0.605
				c0.263-0.403,0.395-0.916,0.395-1.536v-0.119c0-0.612-0.133-1.123-0.397-1.53c-0.266-0.407-0.653-0.611-1.166-0.611
				c-0.508,0-0.893,0.204-1.154,0.611s-0.393,0.918-0.393,1.53V258.062z"/>
			<path fill="#666666" d="M331.759,260.203c0.328,0,0.614-0.108,0.859-0.327c0.245-0.218,0.368-0.485,0.368-0.803h0.963
				l0.016,0.032c0.015,0.505-0.202,0.953-0.648,1.344c-0.447,0.392-0.967,0.587-1.558,0.587c-0.822,0-1.457-0.279-1.904-0.838
				s-0.671-1.255-0.671-2.088v-0.228c0-0.825,0.225-1.519,0.674-2.079c0.448-0.561,1.082-0.841,1.901-0.841
				c0.652,0,1.187,0.201,1.604,0.605c0.416,0.403,0.617,0.899,0.603,1.487l-0.011,0.032h-0.968c0-0.356-0.116-0.66-0.349-0.911
				c-0.233-0.251-0.526-0.376-0.879-0.376c-0.523,0-0.904,0.203-1.145,0.608c-0.239,0.406-0.359,0.897-0.359,1.474v0.228
				c0,0.588,0.118,1.084,0.354,1.487C330.845,260.002,331.229,260.203,331.759,260.203z"/>
			<path fill="#666666" d="M338.827,260.923c-0.036-0.177-0.063-0.333-0.084-0.468c-0.02-0.136-0.031-0.271-0.035-0.408
				c-0.198,0.281-0.457,0.517-0.776,0.706c-0.318,0.188-0.662,0.283-1.03,0.283c-0.609,0-1.073-0.155-1.393-0.468
				c-0.319-0.312-0.479-0.741-0.479-1.29c0-0.559,0.227-0.996,0.679-1.312s1.066-0.473,1.842-0.473h1.157v-0.579
				c0-0.343-0.104-0.614-0.313-0.814c-0.209-0.199-0.505-0.3-0.887-0.3c-0.347,0-0.626,0.087-0.839,0.26s-0.319,0.38-0.319,0.622
				l-1.011,0.011l-0.011-0.032c-0.025-0.426,0.174-0.815,0.598-1.169c0.424-0.353,0.971-0.529,1.642-0.529
				c0.663,0,1.196,0.168,1.601,0.505c0.404,0.338,0.605,0.823,0.605,1.458v2.818c0,0.209,0.011,0.411,0.033,0.605
				c0.021,0.194,0.061,0.386,0.118,0.573H338.827z M337.059,260.144c0.386,0,0.733-0.099,1.044-0.297
				c0.31-0.198,0.512-0.426,0.605-0.682v-0.952h-1.195c-0.429,0-0.772,0.108-1.03,0.325c-0.258,0.216-0.387,0.47-0.387,0.762
				c0,0.26,0.081,0.466,0.243,0.617C336.502,260.068,336.741,260.144,337.059,260.144z"/>
			<path fill="#666666" d="M341.493,260.09c0.281,0,0.486-0.231,0.614-0.695c0.128-0.463,0.221-1.171,0.278-2.122l0.141-2.202h3.884
				v5.02h0.773v2.77h-1.065v-1.937h-4.133v1.937h-1.065v-2.77H341.493z M343.457,257.272c-0.044,0.688-0.103,1.257-0.176,1.706
				c-0.074,0.449-0.186,0.819-0.333,1.111h2.396v-4.072h-1.813L343.457,257.272z"/>
			<path fill="#666666" d="M350.002,258.44h-0.547v2.482h-1.065v-5.853h1.065v2.472h0.455l2.093-2.472h1.25l0.011,0.027l-2.429,2.78
				l2.612,3.018l-0.011,0.027h-1.31L350.002,258.44z"/>
			<path fill="#666666" d="M354.031,257.942c0-0.865,0.234-1.578,0.703-2.139s1.105-0.841,1.909-0.841
				c0.812,0,1.452,0.279,1.923,0.838s0.706,1.272,0.706,2.142v0.119c0,0.873-0.234,1.587-0.703,2.142
				c-0.469,0.556-1.107,0.833-1.915,0.833s-1.446-0.278-1.917-0.835c-0.471-0.558-0.706-1.271-0.706-2.14V257.942z M355.097,258.062
				c0,0.62,0.131,1.133,0.393,1.536c0.262,0.404,0.649,0.605,1.165,0.605c0.509,0,0.895-0.201,1.158-0.605
				c0.263-0.403,0.395-0.916,0.395-1.536v-0.119c0-0.612-0.133-1.123-0.397-1.53c-0.266-0.407-0.653-0.611-1.166-0.611
				c-0.508,0-0.893,0.204-1.154,0.611s-0.393,0.918-0.393,1.53V258.062z"/>
			<path fill="#666666" d="M360.581,260.923v-5.853h2.309c0.772,0,1.371,0.135,1.796,0.403c0.426,0.269,0.639,0.672,0.639,1.209
				c0,0.273-0.083,0.519-0.249,0.732c-0.166,0.215-0.4,0.378-0.703,0.49c0.364,0.09,0.648,0.258,0.852,0.505
				c0.204,0.247,0.306,0.529,0.306,0.847c0,0.548-0.199,0.963-0.598,1.244s-0.954,0.422-1.668,0.422H360.581z M361.646,257.542
				h1.249c0.451,0,0.791-0.066,1.02-0.199c0.229-0.134,0.344-0.336,0.344-0.606c0-0.277-0.115-0.486-0.347-0.627
				c-0.23-0.141-0.571-0.211-1.022-0.211h-1.243V257.542z M361.646,258.359v1.741h1.617c0.393,0,0.69-0.074,0.892-0.225
				c0.202-0.149,0.304-0.365,0.304-0.646c0-0.277-0.102-0.492-0.304-0.644c-0.201-0.151-0.499-0.227-0.892-0.227H361.646z"/>
		</g>
	</g>
</g>
</svg>
